<svg viewBox="0 0 480 480" xmlns="http://www.w3.org/2000/svg">
    <title>
        server
    </title>
    <path d="M410.293 24H69.705c-11.051 0-20.09 9.04-20.09 20.094v60.277c0 11.051 9.039 20.095 20.09 20.095h340.567c11.05 0 20.096-9.044 20.096-20.095V44.094C430.39 33.04 421.34 24 410.302 24zm-98.362 55.136H260.46c-2.69 0-4.904-2.21-4.904-4.899 0-2.7 2.212-4.907 4.904-4.907h51.472c2.694 0 4.906 2.21 4.906 4.907-.002 2.69-2.212 4.9-4.906 4.9zm31.052 6.124c-6.095 0-11.035-4.94-11.035-11.023 0-6.1 4.94-11.035 11.035-11.035 6.087 0 11.025 4.935 11.025 11.035-.002 6.083-4.938 11.023-11.025 11.023zm37.17 0c-6.091 0-11.031-4.94-11.031-11.023 0-6.1 4.94-11.035 11.03-11.035 6.096 0 11.032 4.935 11.032 11.035 0 6.083-4.936 11.023-11.031 11.023zm30.14 59.3H69.726c-11.05 0-20.09 9.042-20.09 20.086v60.286c0 11.05 9.04 20.086 20.09 20.086h340.567c11.051 0 20.097-9.036 20.097-20.086v-60.286c0-11.044-9.046-20.086-20.097-20.086zm-98.362 55.13H260.46c-2.69 0-4.904-2.201-4.904-4.899 0-2.695 2.212-4.899 4.904-4.899h51.472c2.694 0 4.906 2.206 4.906 4.9-.002 2.697-2.212 4.898-4.906 4.898zm31.052 6.128c-6.095 0-11.035-4.936-11.035-11.027s4.94-11.027 11.035-11.027c6.087 0 11.025 4.936 11.025 11.027-.002 6.091-4.938 11.027-11.025 11.027zm37.17 0c-6.091 0-11.031-4.936-11.031-11.027s4.94-11.027 11.03-11.027c6.096 0 11.032 4.936 11.032 11.027s-4.936 11.027-11.031 11.027zm30.14 59.302H69.726c-11.05 0-20.09 9.049-20.09 20.097v60.284c0 11.046 9.04 20.088 20.09 20.088h340.567c11.051 0 20.097-9.042 20.097-20.088v-60.284c0-11.048-9.046-20.096-20.097-20.096zm-98.362 55.137H260.46c-2.69 0-4.904-2.205-4.904-4.899 0-2.696 2.212-4.907 4.904-4.907h51.472c2.694 0 4.906 2.211 4.906 4.907-.002 2.696-2.212 4.899-4.906 4.899zm31.052 6.128c-6.095 0-11.035-4.936-11.035-11.025 0-6.091 4.94-11.03 11.035-11.03 6.087 0 11.025 4.939 11.025 11.03-.002 6.09-4.938 11.025-11.025 11.025zm37.17 0c-6.091 0-11.031-4.936-11.031-11.025 0-6.091 4.94-11.03 11.03-11.03 6.096 0 11.032 4.939 11.032 11.03 0 6.09-4.936 11.025-11.031 11.025zM194.79 434.897c0 3.318-2.713 6.03-6.03 6.03h-88.41c-3.313 0-6.028-2.712-6.028-6.03v-8.038c0-3.309 2.713-6.026 6.029-6.026h88.408c3.318 0 6.031 2.717 6.031 6.026v8.038zm190.88 0c0 3.318-2.718 6.03-6.031 6.03h-88.41c-3.317 0-6.026-2.712-6.026-6.03v-8.038c0-3.309 2.71-6.026 6.027-6.026h88.409c3.313 0 6.03 2.717 6.03 6.026v8.038zM263.349 407.53a6.011 6.011 0 0 0-4.27-1.77h-9.042v-14.065a6.013 6.013 0 0 0-1.76-4.262 6.003 6.003 0 0 0-4.263-1.765h-8.037a6.017 6.017 0 0 0-4.266 1.765 6.023 6.023 0 0 0-1.769 4.262v14.066h-9.04a6.01 6.01 0 0 0-4.261 1.769 6.019 6.019 0 0 0-1.77 4.261v38.176a6.04 6.04 0 0 0 1.77 4.266 6.037 6.037 0 0 0 4.261 1.76h38.176a6.039 6.039 0 0 0 4.27-1.76 6.026 6.026 0 0 0 1.765-4.266v-38.176a6.014 6.014 0 0 0-1.764-4.261z" fill="#5e889e"/>
</svg>
