<?xml version="1.0" encoding="utf-8"?>
<svg xmlns="http://www.w3.org/2000/svg" viewBox="0 0 50 50">
  <path d="M24.89,48.95,2.34,42.2A3.57,3.57,0,0,1,0,39.29v-29C0,8.76,1.46,7.82,2.93,7.42L25.55,0.95c.18,0,.9.18.9.37l1.43,47.28A4.66,4.66,0,0,1,24.89,48.95Z" fill="#3796c4"/>
  <path d="M48,42.29,27.37,48.85a1.66,1.66,0,0,1-2.18-1.64V1.53A.58.58,0,0,1,25.94,0.95L48,8.29c1,.3,2,1,2,1.91V39.95A2.41,2.41,0,0,1,48,42.29Zm-1-30-17-5v36l17-5Z" fill="#59b2d7"/>
  <polygon points="41.39 28.37 37.55 28.37 37.55 14.28 41.39 15.07" fill="#7fba00"/>
  <polygon points="43.32 27.81 35.41 28.16 39.54 36.4" fill="#7fba00"/>
</svg>