<svg xmlns="http://www.w3.org/2000/svg" xmlns:xlink="http://www.w3.org/1999/xlink" version="1.1" width="1000" height="1000" viewBox="0 0 1000 1000" xml:space="preserve">
<desc>Created with Fabric.js 3.5.0</desc>
<defs>
</defs>
<rect x="0" y="0" width="100%" height="100%" fill="rgba(255,255,255,0)"/>
<g transform="matrix(12.9436 0 0 12.9436 369.0445 369.0445)" id="225201">
<g style="" vector-effect="non-scaling-stroke">
		<g transform="matrix(1 0 0 1 0.1 -0.15)" id="Layer_1">
<path style="stroke: none; stroke-width: 1; stroke-dasharray: none; stroke-linecap: butt; stroke-dashoffset: 0; stroke-linejoin: miter; stroke-miterlimit: 4; is-custom-font: none; font-file-url: none; fill: rgb(89,180,217); fill-rule: nonzero; opacity: 1;" transform=" translate(-25.1, -24.85)" d="M 20.5 32.5 h -8.9 l 0 0 c -4.4 0 -8 -3.6 -8 -8.1 s 3.4 -8.1 8 -8.1 c 0.8 0 1.7 0.2 2.7 0.3 l 1.7 0.5 l 0.5 -1.7 C 18.1 10.2 23.1 7 28.8 7 c 6.9 0 12.2 5.3 12.2 12.2 c 0 1.1 -0.2 2.2 -0.5 3.3 L 39.8 25 l 2.7 -0.3 c 0.2 0 0.3 0 0.5 0 c 2 0 3.6 1.7 3.6 3.6 s -1.4 3.3 -3.1 3.6 c 0 0 -8.6 0 -8.9 0 c -0.3 -2.5 -1.6 -4.7 -3.3 -6.4 C 29.1 23.3 26.1 22 23 22 c -2.2 0 -4.4 0.6 -6.1 1.7 l 1.9 3 c 1.4 -0.8 2.8 -1.1 4.4 -1.1 c 2.2 0 4.4 0.8 5.8 2.5 c 1.6 1.6 2.5 3.6 2.5 5.8 s -0.8 4.4 -2.5 5.8 c -1.6 1.7 -3.6 2.5 -5.8 2.5 c -1.6 0 -3.1 -0.5 -4.4 -1.4 l -1.9 3 c 1.9 1.1 4.1 1.9 6.1 1.9 c 3.1 0 6.1 -1.1 8.3 -3.4 c 1.9 -1.9 3 -4.4 3.3 -7 c 0.5 0 9.1 0 9.1 0 h 0.2 c 3.6 -0.3 6.3 -3.4 6.3 -7.2 c 0 -3 -2.8 -5.8 -6.1 -6.4 c 0.2 -0.6 0.2 -0.9 0.2 -1.9 c 0 -8.8 -6.2 -15.8 -16.1 -15.8 l 0 0 c -6.3 0 -11.9 3.6 -14.2 9.4 c -0.8 0 -1.4 -0.3 -2.3 -0.3 C 5.2 13 0 18 0 24.4 c 0 6.3 5.2 11.3 11.4 11.3 h 9.8 L 20.5 32.5 z" stroke-linecap="round"/>
</g>
		<g transform="matrix(1 0 0 1 -2.2 8.8)" id="Layer_1">
<circle style="stroke: none; stroke-width: 1; stroke-dasharray: none; stroke-linecap: butt; stroke-dashoffset: 0; stroke-linejoin: miter; stroke-miterlimit: 4; is-custom-font: none; font-file-url: none; fill: rgb(104,33,122); fill-rule: nonzero; opacity: 1;" cx="0" cy="0" r="5.6"/>
</g>
</g>
</g>
<g transform="matrix(13.498 0 0 13.498 489.4035 680.4635)" id="856726">
<g style="" vector-effect="non-scaling-stroke">
		<g transform="matrix(1 0 0 1 0.002 0.0017)" clip-path="url(#CLIPPATH_14)">
<linearGradient id="SVGID_12" gradientUnits="userSpaceOnUse" gradientTransform="matrix(1 0 0 1 0 0)" x1="17.5" y1="34.9999" x2="17.5" y2="-0.0000580548">
<stop offset="0%" style="stop-color:rgb(25,138,179);stop-opacity: 1"/>
<stop offset="100%" style="stop-color:rgb(50,190,221);stop-opacity: 1"/>
</linearGradient>
<clipPath id="CLIPPATH_14">
	<rect transform="matrix(1 0 0 1 -0.002 -0.0017)" id="clip0_4804_1259" x="-17.5" y="-17.5" rx="0" ry="0" width="35" height="35"/>
</clipPath>
<path style="stroke: none; stroke-width: 1; stroke-dasharray: none; stroke-linecap: butt; stroke-dashoffset: 0; stroke-linejoin: miter; stroke-miterlimit: 4; is-custom-font: none; font-file-url: none; fill: url(#SVGID_12); fill-rule: nonzero; opacity: 1;" transform=" translate(-17.502, -17.5017)" d="M 23.03 24.8713 C 22.4156 24.7138 21.7836 24.7294 21.1886 24.9005 L 18.6706 20.7705 C 18.5928 20.6441 18.4295 20.6013 18.3011 20.6752 L 17.2589 21.2761 C 17.1267 21.3519 17.082 21.5249 17.1617 21.6552 L 19.6817 25.7911 C 18.3847 27.0899 18.2486 29.2852 19.7011 30.7513 C 19.9345 30.9866 20.2047 31.1849 20.4983 31.3386 C 21.035 31.6166 21.6028 31.7527 22.1647 31.7527 C 23.065 31.7527 23.9458 31.4027 24.64 30.728 C 24.8831 30.4927 25.0872 30.2166 25.2428 29.9172 C 25.83 28.7913 25.7872 27.5197 25.1708 26.4774 C 24.6945 25.6744 23.9361 25.1027 23.03 24.8713 Z M 23.8545 28.6922 C 23.7378 29.1433 23.452 29.5244 23.0495 29.7616 C 22.647 29.9988 22.1764 30.0649 21.7233 29.9502 C 21.1828 29.8122 20.7453 29.4311 20.5295 28.8983 C 20.2553 28.2197 20.4497 27.4166 21.0058 26.9402 C 21.3383 26.6544 21.7428 26.5086 22.157 26.5086 C 22.3028 26.5086 22.4506 26.5261 22.5945 26.5649 C 23.0475 26.6816 23.4267 26.9655 23.6658 27.368 C 23.9031 27.7705 23.9711 28.2391 23.8545 28.6922 Z M 30.767 10.3308 C 28.7992 10.3308 27.1445 11.6822 26.672 13.5022 H 21.7331 C 21.5814 13.5022 21.4589 13.6247 21.4589 13.7763 V 15.3436 C 21.4589 15.4952 21.5814 15.6177 21.7331 15.6177 H 26.672 C 27.1445 17.4397 28.7972 18.7891 30.767 18.7891 C 33.1022 18.7891 35 16.8913 35 14.5599 C 35 12.2286 33.1003 10.3308 30.767 10.3308 Z M 32.8436 14.9741 C 32.6842 15.8063 32.0133 16.4752 31.1831 16.6347 C 29.6936 16.9186 28.4064 15.6333 28.6903 14.1458 C 28.8497 13.3136 29.5186 12.6447 30.3508 12.4852 C 31.8403 12.1994 33.1275 13.4866 32.8436 14.9741 Z M 5.79056 5.74189 C 6.02584 5.80022 6.26501 5.82939 6.50223 5.82939 C 6.78223 5.82939 7.05834 5.78661 7.32473 5.70689 L 9.04362 8.5205 C 9.1214 8.64689 9.28473 8.68966 9.41306 8.61578 L 10.2025 8.16078 C 10.3347 8.08494 10.3795 7.91189 10.2997 7.78161 L 8.57501 4.95633 C 9.48501 4.03272 9.69695 2.57633 8.9989 1.4155 C 8.59834 0.748552 7.96056 0.277997 7.20418 0.0893856 C 6.3389 -0.126448 5.43668 0.0582745 4.71529 0.608552 C 3.65168 1.41939 3.28223 2.903 3.84029 4.11827 C 4.21945 4.94272 4.92723 5.528 5.79251 5.74189 H 5.79056 Z M 5.62918 1.74411 C 5.88779 1.5555 6.18918 1.45633 6.49445 1.45633 C 6.61306 1.45633 6.73168 1.47189 6.85029 1.50105 C 7.3014 1.61383 7.66695 1.92689 7.84973 2.36827 C 8.10251 2.98077 7.88862 3.71189 7.34806 4.09689 C 6.99418 4.34966 6.56056 4.43133 6.14445 4.32633 C 5.69334 4.21355 5.32779 3.9005 5.14501 3.45911 C 4.89418 2.85244 5.10029 2.133 5.62918 1.74411 Z M 10.9122 21.3694 L 9.30223 20.4419 C 9.17195 20.3661 9.00279 20.4108 8.9289 20.543 L 6.06473 25.5538 C 3.6789 24.918 1.03445 26.1858 0.213897 28.7972 C 0.0369529 29.3591 -0.0291582 29.9541 0.0194529 30.5413 C 0.157508 32.1922 1.06362 33.5922 2.45584 34.3777 C 3.1889 34.7899 3.99779 35.0019 4.8164 35.0019 C 5.54362 35.0019 6.27862 34.8347 6.97279 34.4983 C 7.53473 34.2261 8.04029 33.8372 8.44668 33.3647 C 9.53556 32.0969 9.8914 30.4538 9.46168 28.9061 C 9.22834 28.0661 8.77723 27.3252 8.16279 26.7361 L 11.0172 21.7447 C 11.0911 21.6144 11.0464 21.4472 10.9161 21.3713 L 10.9122 21.3694 Z M 6.9164 31.3736 L 6.50223 31.8286 C 6.18918 32.1727 5.78862 32.4411 5.33362 32.5402 C 4.75418 32.6666 4.15723 32.5791 3.63612 32.2855 C 3.07612 31.9705 2.67362 31.4552 2.50056 30.8369 C 2.32751 30.2186 2.40723 29.5691 2.72418 29.0111 C 3.16556 28.2294 3.98418 27.7899 4.82418 27.7899 C 5.22473 27.7899 5.63112 27.8891 6.00251 28.1011 C 6.56251 28.416 6.96501 28.9313 7.13806 29.5497 C 7.31112 30.168 7.2314 30.8174 6.91445 31.3755 L 6.9164 31.3736 Z" stroke-linecap="round"/>
</g>
		<g transform="matrix(1 0 0 1 -3.4942 -2.9399)" clip-path="url(#CLIPPATH_15)">
<linearGradient id="SVGID_13" gradientUnits="userSpaceOnUse" gradientTransform="matrix(1 0 0 1 0 0)" x1="14.0059" y1="21.562" x2="14.0059" y2="7.56006">
<stop offset="0%" style="stop-color:rgb(111,75,178);stop-opacity: 1"/>
<stop offset="100%" style="stop-color:rgb(198,154,235);stop-opacity: 1"/>
</linearGradient>
<clipPath id="CLIPPATH_15">
	<rect transform="matrix(1 0 0 1 3.4941 2.94)" id="clip0_4804_1259" x="-17.5" y="-17.5" rx="0" ry="0" width="35" height="35"/>
</clipPath>
<path style="stroke: none; stroke-width: 1; stroke-dasharray: none; stroke-linecap: butt; stroke-dashoffset: 0; stroke-linejoin: miter; stroke-miterlimit: 4; is-custom-font: none; font-file-url: none; fill: url(#SVGID_13); fill-rule: nonzero; opacity: 1;" transform=" translate(-14.0059, -14.56)" d="M 19.2909 10.2803 L 15.0675 7.84395 C 14.4084 7.46478 13.5956 7.46478 12.9364 7.84395 L 8.71308 10.2803 C 8.05391 10.6614 7.64752 11.3634 7.64752 12.1237 V 16.9945 C 7.64752 17.7548 8.05391 18.4587 8.71308 18.8398 L 12.9403 21.2762 C 13.5995 21.6553 14.4122 21.6553 15.0714 21.2762 L 19.2986 18.8398 C 19.9578 18.4587 20.3642 17.7567 20.3642 16.9945 V 12.1237 C 20.3622 11.3614 19.952 10.6576 19.2909 10.2803 Z" stroke-linecap="round"/>
</g>
</g>
</g>
</svg>