<?xml version="1.0" encoding="utf-8"?>
<svg version="1.1" xmlns="http://www.w3.org/2000/svg" viewBox="0 0 50 50">
<line fill="#7FBA00" x1="42.8" y1="39" x2="42.8" y2="43"/>
<path fill="#A0A1A2" d="M44,6H14v4h29v13h-6v4h7c1.65,0,3-1.35,3-3V9C47,7.35,45.65,6,44,6z"/>
<polygon fill="#A0A1A2" points="38,30 32,25 38,20 "/>
<path fill="#7FBA00" d="M7,40V27h10v-4H6c-1.65,0-3,1.35-3,3v15c0,1.65,1.35,3,3,3h27v-4H7z"/>
<polygon fill="#7FBA00" points="31,37 37,42 31,47 "/>
<line fill="#7FBA00" x1="41.8" y1="39" x2="41.8" y2="43"/>
<line fill="#7FBA00" x1="19.9" y1="24" x2="19.9" y2="28"/>
<path fill="#0399C6" d="M19,29.581v-9.162c0-0.8,0.661-1.442,1.461-1.419L29.623,19c0.751,0.022,1.355,0.626,1.377,1.377
	l-0.001,9.162c0.024,0.8-0.618,1.461-1.419,1.461h-9.162C19.635,31,19,30.365,19,29.581z"/>
<circle fill="#0399C6" cx="7" cy="8" r="5"/>
<circle fill="#0399C6" cx="43" cy="42" r="5"/>
</svg>
