<svg width="369" height="369" viewBox="0 0 369 369" fill="none" xmlns="http://www.w3.org/2000/svg">
<path d="M290.69 120.743C289.938 94.5157 278.85 69.6489 259.842 51.5624C240.834 33.4759 215.447 23.6362 189.215 24.1879C168 23.9698 147.24 30.3403 129.799 42.4206C112.358 54.5009 99.0948 71.6956 91.84 91.6329C69.3551 94.734 48.7373 105.824 33.7561 122.876C18.7749 139.927 10.431 161.801 10.25 184.498C11.1597 209.711 21.9852 233.546 40.373 250.82C58.7608 268.095 83.2243 277.413 108.445 276.748C111.311 276.949 114.189 276.949 117.055 276.748H141.655C140.161 273.105 139.395 269.205 139.4 265.268V265.268C139.474 260.012 140.885 254.862 143.5 250.303H114.8H108.445C90.2079 250.922 72.4516 244.386 58.9685 232.091C45.4855 219.795 37.3447 202.715 36.285 184.498C36.4506 168.002 42.5838 152.125 53.5505 139.801C64.5171 127.478 79.5752 119.543 95.94 117.463L111.52 115.003L116.645 100.038C122.135 85.2696 132.053 72.5579 145.043 63.6411C158.033 54.7244 173.46 50.038 189.215 50.2229C208.549 49.7766 227.285 56.9369 241.393 70.1634C255.501 83.3899 263.854 101.626 264.655 120.948V143.498L287 146.573C299.533 148.177 311.083 154.198 319.575 163.554C328.067 172.91 332.944 184.988 333.33 197.618C332.853 211.559 326.99 224.773 316.975 234.483C306.959 244.193 293.57 249.643 279.62 249.688H276.545H274.905H254.405C250.865 231.272 240.996 214.674 226.508 202.769C212.019 190.863 193.823 184.4 175.07 184.498C173.223 184.266 171.349 184.429 169.57 184.977C167.791 185.525 166.15 186.445 164.754 187.676C163.358 188.908 162.24 190.422 161.475 192.118C160.709 193.814 160.313 195.654 160.313 197.515C160.313 199.377 160.709 201.216 161.475 202.913C162.24 204.609 163.358 206.123 164.754 207.354C166.15 208.586 167.791 209.506 169.57 210.054C171.349 210.602 173.223 210.765 175.07 210.533C188.874 211.382 201.835 217.464 211.31 227.54C220.784 237.615 226.059 250.925 226.059 264.755C226.059 278.586 220.784 291.896 211.31 301.971C201.835 312.046 188.874 318.129 175.07 318.978C173.223 318.746 171.349 318.909 169.57 319.457C167.791 320.005 166.15 320.925 164.754 322.156C163.358 323.388 162.24 324.902 161.475 326.598C160.709 328.294 160.313 330.134 160.313 331.995C160.313 333.857 160.709 335.696 161.475 337.393C162.24 339.089 163.358 340.603 164.754 341.834C166.15 343.066 167.791 343.986 169.57 344.534C171.349 345.082 173.223 345.245 175.07 345.013C194.298 344.979 212.877 338.052 227.434 325.489C241.991 312.926 251.56 295.56 254.405 276.543H275.93C277.288 276.758 278.672 276.758 280.03 276.543C300.828 276.173 320.667 267.732 335.356 253.005C350.045 238.277 358.434 218.416 358.75 197.618C358.398 178.804 351.354 160.732 338.881 146.643C326.408 132.555 309.322 123.372 290.69 120.743V120.743Z" fill="url(#paint0_linear_4254_43770)"/>
<path d="M171.788 232.676H170.968C153.532 232.676 139.398 246.81 139.398 264.246V265.066C139.398 282.502 153.532 296.636 170.968 296.636H171.788C189.224 296.636 203.358 282.502 203.358 265.066V264.246C203.358 246.81 189.224 232.676 171.788 232.676Z" fill="url(#paint1_linear_4254_43770)"/>
<defs>
<linearGradient id="paint0_linear_4254_43770" x1="184.5" y1="344.808" x2="184.5" y2="24.1879" gradientUnits="userSpaceOnUse">
<stop stop-color="#198AB3"/>
<stop offset="0.09" stop-color="#1F9DC4"/>
<stop offset="0.24" stop-color="#28B5D9"/>
<stop offset="0.4" stop-color="#2DC6E9"/>
<stop offset="0.57" stop-color="#31D1F2"/>
<stop offset="0.78" stop-color="#32D4F5"/>
</linearGradient>
<linearGradient id="paint1_linear_4254_43770" x1="171.378" y1="232.676" x2="171.378" y2="296.431" gradientUnits="userSpaceOnUse">
<stop stop-color="#C69AEB"/>
<stop offset="1" stop-color="#6F4BB2"/>
</linearGradient>
</defs>
</svg>
