<svg width="437" height="322" viewBox="0 0 437 322" fill="none" xmlns="http://www.w3.org/2000/svg">
<rect width="300" height="294" fill="#252526"/>
<path d="M25.9888 24L25.2798 21.9053H22.3257L21.6113 24H20.376L23.1743 16.2495H24.4688L27.2671 24H25.9888ZM23.7598 17.6191L22.6318 20.9385H24.9736L23.8511 17.6191H23.7598ZM28.4058 24V23.1782L32.6167 17.3774V17.2861H28.5347V16.2495H34.126V17.0713L29.9365 22.8721V22.9634H34.228V24H28.4058ZM37.1499 16.2495V21.2339C37.1499 22.3403 37.8535 23.1191 39.0835 23.1191C40.3188 23.1191 41.0225 22.3403 41.0225 21.2339V16.2495H42.2256V21.3306C42.2256 23.0063 41.0332 24.188 39.0835 24.188C37.1445 24.188 35.9468 23.0063 35.9468 21.3306V16.2495H37.1499ZM45.3677 21.019V24H44.1646V16.2495H47.2314C48.7944 16.2495 49.7988 17.1733 49.7988 18.6182C49.7988 19.6655 49.2402 20.5142 48.2949 20.8311L50.0352 24H48.644L47.0649 21.019H45.3677ZM45.3677 17.2593V20.0308H47.0972C48.0264 20.0308 48.5635 19.5312 48.5635 18.645C48.5635 17.7803 47.9941 17.2593 47.0649 17.2593H45.3677ZM56.4321 22.9634V24H51.5122V16.2495H56.4321V17.2861H52.7153V19.5527H56.2334V20.5518H52.7153V22.9634H56.4321Z" fill="#CCCCCC"/>
<path d="M273 20C273 20.2844 272.893 20.5333 272.68 20.7467C272.502 20.9244 272.271 21.0133 271.987 21.0133C271.702 21.0133 271.471 20.9244 271.293 20.7467C271.116 20.5333 271.027 20.2844 271.027 20C271.027 19.7156 271.116 19.4844 271.293 19.3067C271.471 19.0933 271.702 18.9867 271.987 18.9867C272.271 18.9867 272.502 19.0933 272.68 19.3067C272.893 19.4844 273 19.7156 273 20ZM278.013 20C278.013 20.2844 277.907 20.5333 277.693 20.7467C277.516 20.9244 277.284 21.0133 277 21.0133C276.716 21.0133 276.467 20.9244 276.253 20.7467C276.076 20.5333 275.987 20.2844 275.987 20C275.987 19.7156 276.076 19.4844 276.253 19.3067C276.467 19.0933 276.716 18.9867 277 18.9867C277.284 18.9867 277.516 19.0933 277.693 19.3067C277.907 19.4844 278.013 19.7156 278.013 20ZM283.027 20C283.027 20.2844 282.92 20.5333 282.707 20.7467C282.529 20.9244 282.298 21.0133 282.013 21.0133C281.729 21.0133 281.48 20.9244 281.267 20.7467C281.089 20.5333 281 20.2844 281 20C281 19.7156 281.089 19.4844 281.267 19.3067C281.48 19.0933 281.729 18.9867 282.013 18.9867C282.298 18.9867 282.529 19.0933 282.707 19.3067C282.92 19.4844 283.027 19.7156 283.027 20Z" fill="#CCCCCC"/>
<path d="M14 53.58L18.32 49.2067L18.96 49.8467L14.2667 54.4867H13.68L8.98667 49.8467L9.62667 49.2067L14 53.58Z" fill="#CCCCCC"/>
<path d="M29.9189 55L29.3335 53.1201H26.6104L26.0142 55H24.3867L27.0776 47.2495H28.9844L31.6753 55H29.9189ZM27.9316 48.8232L26.9595 51.9062H28.9897L28.0283 48.8232H27.9316ZM32.9966 47.2495H36.23C37.8252 47.2495 38.9155 48.313 38.9155 49.9136C38.9155 51.4927 37.7822 52.5562 36.1494 52.5562H34.6187V55H32.9966V47.2495ZM34.6187 48.5386V51.2832H35.7949C36.7241 51.2832 37.2666 50.7998 37.2666 49.9189C37.2666 49.0166 36.7349 48.5386 35.8003 48.5386H34.6187ZM42.0308 55H40.4087V47.2495H42.0308V55ZM54.9536 55H53.4497V49.7524H53.3638L51.3926 54.6187H50.313L48.3364 49.7524H48.2505V55H46.7466V47.2495H48.6587L50.8018 52.5938H50.8984L53.0469 47.2495H54.9536V55ZM61.8125 55L61.2271 53.1201H58.5039L57.9077 55H56.2803L58.9712 47.2495H60.8779L63.5688 55H61.8125ZM59.8252 48.8232L58.853 51.9062H60.8833L59.9219 48.8232H59.8252ZM66.4424 55H64.8901V47.2495H66.2437L69.8101 52.1855H69.9067V47.2495H71.459V55H70.1162L66.5391 50.0425H66.4424V55ZM78.3232 55L77.7378 53.1201H75.0146L74.4185 55H72.791L75.4819 47.2495H77.3887L80.0796 55H78.3232ZM76.3359 48.8232L75.3638 51.9062H77.394L76.4326 48.8232H76.3359ZM87.8569 51.8525C87.8569 53.9097 86.5356 55.1987 84.4194 55.1987C82.1152 55.1987 80.7026 53.6465 80.7026 51.1167C80.7026 48.6245 82.126 47.0508 84.3818 47.0508C86.2134 47.0508 87.5615 48.0981 87.7871 49.7041H86.1758C85.9341 48.8931 85.2842 48.4312 84.3818 48.4312C83.1304 48.4312 82.3623 49.4463 82.3623 51.1006C82.3623 52.7871 83.168 53.813 84.4463 53.813C85.5098 53.813 86.2456 53.1631 86.2778 52.1963L86.2832 52.0513H84.6021V50.8696H87.8569V51.8525ZM94.5493 53.6626V55H89.4146V47.2495H94.5493V48.5869H91.0366V50.4561H94.3506V51.7021H91.0366V53.6626H94.5493ZM104.464 55H102.96V49.7524H102.875L100.903 54.6187H99.8237L97.8472 49.7524H97.7612V55H96.2573V47.2495H98.1694L100.312 52.5938H100.409L102.558 47.2495H104.464V55ZM111.479 53.6626V55H106.344V47.2495H111.479V48.5869H107.966V50.4561H111.28V51.7021H107.966V53.6626H111.479ZM114.739 55H113.187V47.2495H114.541L118.107 52.1855H118.204V47.2495H119.756V55H118.413L114.836 50.0425H114.739V55ZM125.143 55H123.521V48.5869H121.195V47.2495H127.469V48.5869H125.143V55Z" fill="#CCCCCC"/>
<g clip-path="url(#clip0_6184_10303)">
<path d="M23 75.08L27.32 70.7067L27.96 71.3467L23.2667 75.9867L22.68 75.9867L17.9867 71.3467L18.6267 70.7067L23 75.08Z" fill="#CCCCCC"/>
<g clip-path="url(#clip1_6184_10303)">
<path d="M45.053 71.3912C45.2242 71.2203 45.36 71.0173 45.4527 70.7939C45.5453 70.5704 45.593 70.3309 45.593 70.089C45.593 69.8471 45.5453 69.6075 45.4527 69.3841C45.36 69.1606 45.2242 68.9576 45.053 68.7867V68.7867L41.8885 65.6134C41.7184 65.4425 41.5161 65.3068 41.2934 65.2143C41.0707 65.1217 40.8319 65.0741 40.5907 65.0741C40.3496 65.0741 40.1108 65.1217 39.888 65.2143C39.6653 65.3068 39.4631 65.4425 39.293 65.6134V65.6134L36.1285 68.7867C35.787 69.1342 35.5957 69.6018 35.5957 70.089C35.5957 70.5761 35.787 71.0438 36.1285 71.3912L38.7952 74.0579C38.8895 74.1561 38.9435 74.2862 38.9463 74.4223V79.329C38.9451 79.4111 38.9602 79.4927 38.9907 79.569C39.0212 79.6452 39.0666 79.7147 39.1241 79.7734L40.3241 80.9734C40.3615 81.0138 40.4069 81.046 40.4574 81.0681C40.5078 81.0901 40.5623 81.1015 40.6174 81.1015C40.6725 81.1015 40.727 81.0901 40.7774 81.0681C40.8279 81.046 40.8733 81.0138 40.9107 80.9734L42.0752 79.809L42.7596 79.1245C42.7828 79.1029 42.8012 79.0768 42.8138 79.0477C42.8265 79.0186 42.833 78.9873 42.833 78.9556C42.833 78.924 42.8265 78.8926 42.8138 78.8636C42.8012 78.8345 42.7828 78.8084 42.7596 78.7867L42.2707 78.289C42.2455 78.2649 42.2253 78.2359 42.2116 78.2038C42.1978 78.1718 42.1907 78.1372 42.1907 78.1023C42.1907 78.0674 42.1978 78.0328 42.2116 78.0008C42.2253 77.9687 42.2455 77.9397 42.2707 77.9156L42.7596 77.4179C42.7828 77.3962 42.8012 77.3701 42.8138 77.341C42.8265 77.312 42.833 77.2806 42.833 77.249C42.833 77.2173 42.8265 77.186 42.8138 77.1569C42.8012 77.1278 42.7828 77.1017 42.7596 77.0801L42.2441 76.5556C42.219 76.5323 42.1991 76.5041 42.1854 76.4728C42.1718 76.4414 42.1647 76.4076 42.1647 76.3734C42.1647 76.3392 42.1718 76.3054 42.1854 76.274C42.1991 76.2427 42.219 76.2145 42.2441 76.1912L42.7774 75.6667C42.8005 75.6451 42.819 75.619 42.8316 75.5899C42.8442 75.5609 42.8507 75.5295 42.8507 75.4979C42.8507 75.4662 42.8442 75.4348 42.8316 75.4058C42.819 75.3767 42.8005 75.3506 42.7774 75.329L42.093 74.6356V74.3867L45.053 71.3912ZM40.6085 66.3779C40.8156 66.3796 41.0175 66.4426 41.1888 66.5589C41.3601 66.6752 41.4932 66.8397 41.5712 67.0315C41.6492 67.2233 41.6687 67.4339 41.6273 67.6368C41.5858 67.8396 41.4852 68.0257 41.3382 68.1715C41.1911 68.3173 41.0042 68.4163 40.801 68.4561C40.5978 68.4958 40.3873 68.4746 40.1962 68.3949C40.0051 68.3153 39.8418 68.1808 39.7269 68.0085C39.612 67.8362 39.5507 67.6338 39.5507 67.4267C39.5496 67.2894 39.5756 67.1532 39.6273 67.026C39.6791 66.8988 39.7555 66.7831 39.8522 66.6856C39.9489 66.5881 40.0639 66.5107 40.1907 66.4579C40.3174 66.405 40.4534 66.3778 40.5907 66.3779H40.6085Z" fill="url(#paint0_radial_6184_10303)"/>
<path opacity="0.75" d="M39.773 79.409C39.8065 79.4294 39.8447 79.4405 39.8839 79.4414C39.9231 79.4422 39.9618 79.4326 39.9961 79.4137C40.0303 79.3947 40.059 79.3671 40.0792 79.3334C40.0993 79.2998 40.1102 79.2615 40.1108 79.2223V75.2668C40.1111 75.2288 40.1024 75.1912 40.0854 75.1572C40.0684 75.1232 40.0436 75.0937 40.013 75.0712C39.9788 75.048 39.9387 75.0348 39.8974 75.0331C39.8561 75.0314 39.8151 75.0412 39.7791 75.0616C39.743 75.0819 39.7134 75.1119 39.6935 75.1481C39.6736 75.1844 39.6642 75.2255 39.6663 75.2668V79.2223C39.6684 79.2596 39.6791 79.2959 39.6976 79.3283C39.7161 79.3607 39.7419 79.3883 39.773 79.409V79.409Z" fill="#FF9300"/>
<path opacity="0.75" d="M42.9821 69.8445H38.3421C38.185 69.8445 38.0576 69.9719 38.0576 70.129V70.1734C38.0576 70.3305 38.185 70.4579 38.3421 70.4579H42.9821C43.1392 70.4579 43.2665 70.3305 43.2665 70.1734V70.129C43.2665 69.9719 43.1392 69.8445 42.9821 69.8445Z" fill="#FF9300"/>
<path opacity="0.75" d="M42.9821 70.8399H38.3421C38.185 70.8399 38.0576 70.9673 38.0576 71.1243V71.1688C38.0576 71.3259 38.185 71.4532 38.3421 71.4532H42.9821C43.1392 71.4532 43.2665 71.3259 43.2665 71.1688V71.1243C43.2665 70.9673 43.1392 70.8399 42.9821 70.8399Z" fill="#FF9300"/>
</g>
<rect x="55" y="68" width="111" height="10" rx="5" fill="#797775"/>
</g>
<path d="M33 97.08L37.32 92.7067L37.96 93.3467L33.2667 97.9867L32.68 97.9867L27.9867 93.3467L28.6267 92.7067L33 97.08Z" fill="#CCCCCC"/>
<path d="M55.6043 92.2355C55.5717 91.0983 55.091 90.02 54.2668 89.2358C53.4426 88.4515 52.3418 88.0249 51.2043 88.0488C50.2844 88.0393 49.3843 88.3156 48.628 88.8394C47.8718 89.3632 47.2967 90.1088 46.9821 90.9733C46.0072 91.1077 45.1132 91.5886 44.4636 92.3279C43.814 93.0673 43.4522 94.0158 43.4443 94.9999C43.4838 96.0932 43.9532 97.1266 44.7505 97.8757C45.5478 98.6247 46.6085 99.0287 47.7021 98.9999C47.8264 99.0086 47.9512 99.0086 48.0754 98.9999H49.1421C49.0773 98.842 49.0441 98.6729 49.0443 98.5021V98.5021C49.0475 98.2743 49.1087 98.0509 49.2221 97.8533H47.9777H47.7021C46.9113 97.8801 46.1414 97.5967 45.5568 97.0636C44.9722 96.5304 44.6192 95.7898 44.5732 94.9999C44.5804 94.2847 44.8463 93.5962 45.3219 93.0619C45.7974 92.5275 46.4503 92.1834 47.1599 92.0933L47.8354 91.9866L48.0577 91.3377C48.2957 90.6973 48.7258 90.1461 49.289 89.7595C49.8523 89.3729 50.5212 89.1697 51.2043 89.1777C52.0426 89.1583 52.8551 89.4688 53.4668 90.0423C54.0785 90.6158 54.4407 91.4065 54.4754 92.2444V93.2221L55.4443 93.3555C55.9878 93.425 56.4886 93.6861 56.8568 94.0918C57.225 94.4975 57.4365 95.0212 57.4532 95.5688C57.4325 96.1733 57.1783 96.7463 56.744 97.1673C56.3098 97.5883 55.7292 97.8246 55.1243 97.8266H54.991H54.9199H54.031C53.8775 97.0281 53.4496 96.3084 52.8214 95.7922C52.1931 95.2759 51.4041 94.9957 50.591 94.9999C50.5109 94.9898 50.4296 94.9969 50.3525 95.0207C50.2754 95.0445 50.2042 95.0844 50.1437 95.1377C50.0832 95.1911 50.0347 95.2568 50.0015 95.3303C49.9683 95.4039 49.9511 95.4837 49.9511 95.5644C49.9511 95.6451 49.9683 95.7248 50.0015 95.7984C50.0347 95.8719 50.0832 95.9376 50.1437 95.991C50.2042 96.0444 50.2754 96.0843 50.3525 96.108C50.4296 96.1318 50.5109 96.1389 50.591 96.1288C51.1896 96.1656 51.7515 96.4294 52.1624 96.8662C52.5732 97.3031 52.8019 97.8802 52.8019 98.4799C52.8019 99.0796 52.5732 99.6567 52.1624 100.094C51.7515 100.53 51.1896 100.794 50.591 100.831C50.5109 100.821 50.4296 100.828 50.3525 100.852C50.2754 100.876 50.2042 100.915 50.1437 100.969C50.0832 101.022 50.0347 101.088 50.0015 101.161C49.9683 101.235 49.9511 101.315 49.9511 101.395C49.9511 101.476 49.9683 101.556 50.0015 101.63C50.0347 101.703 50.0832 101.769 50.1437 101.822C50.2042 101.875 50.2754 101.915 50.3525 101.939C50.4296 101.963 50.5109 101.97 50.591 101.96C51.4248 101.958 52.2303 101.658 52.8615 101.113C53.4927 100.569 53.9076 99.8156 54.031 98.991H54.9643C55.0232 99.0003 55.0832 99.0003 55.1421 98.991C56.0439 98.975 56.9041 98.609 57.5411 97.9704C58.178 97.3318 58.5417 96.4706 58.5554 95.5688C58.5402 94.753 58.2348 93.9694 57.6939 93.3585C57.1531 92.7476 56.4122 92.3495 55.6043 92.2355V92.2355Z" fill="url(#paint1_linear_6184_10303)"/>
<path d="M50.4484 97.0889H50.4128C49.6568 97.0889 49.0439 97.7018 49.0439 98.4578V98.4934C49.0439 99.2494 49.6568 99.8623 50.4128 99.8623H50.4484C51.2044 99.8623 51.8173 99.2494 51.8173 98.4934V98.4578C51.8173 97.7018 51.2044 97.0889 50.4484 97.0889Z" fill="url(#paint2_linear_6184_10303)"/>
<path d="M65.9902 100V93.1064H67.3042V94.2046H67.4058C67.7104 93.4302 68.4087 92.9731 69.3291 92.9731C70.2749 92.9731 70.9287 93.4619 71.2334 94.2046H71.3413C71.6904 93.4619 72.4839 92.9731 73.4424 92.9731C74.8389 92.9731 75.6514 93.811 75.6514 95.2456V100H74.2866V95.5757C74.2866 94.6235 73.8423 94.1602 72.9473 94.1602C72.0649 94.1602 71.4873 94.8076 71.4873 95.6392V100H70.1479V95.436C70.1479 94.6489 69.6274 94.1602 68.8149 94.1602C67.9834 94.1602 67.355 94.8647 67.355 95.7661V100H65.9902ZM78.0254 102.501C77.9111 102.501 77.5874 102.488 77.4604 102.469V101.352C77.5684 101.371 77.7778 101.377 77.9048 101.377C78.5522 101.377 78.9204 101.104 79.1553 100.375L79.2568 100.019L76.7559 93.1064H78.2412L79.9741 98.6289H80.082L81.8086 93.1064H83.2559L80.6787 100.317C80.0884 101.974 79.4346 102.501 78.0254 102.501ZM84.3032 95.0361C84.3032 93.8364 85.4268 92.9731 86.9883 92.9731C88.5435 92.9731 89.5591 93.6968 89.6924 94.8901H88.3848C88.2578 94.376 87.7627 94.0396 86.9883 94.0396C86.2266 94.0396 85.6489 94.4141 85.6489 94.9727C85.6489 95.3979 85.998 95.6646 86.7471 95.8423L87.896 96.1089C89.21 96.4136 89.8257 96.9785 89.8257 97.9814C89.8257 99.2637 88.6133 100.133 86.9629 100.133C85.3188 100.133 84.2461 99.3906 84.1255 98.1909H85.4902C85.6616 98.7305 86.1694 99.0669 86.9946 99.0669C87.8452 99.0669 88.4482 98.6733 88.4482 98.1084C88.4482 97.6768 88.1245 97.3975 87.4326 97.2324L86.2266 96.9468C84.9126 96.6421 84.3032 96.0581 84.3032 95.0361ZM96.002 98.1528H97.3159C97.0176 99.3716 95.9004 100.133 94.3198 100.133C92.3394 100.133 91.127 98.7686 91.127 96.5659C91.127 94.376 92.3647 92.9731 94.3135 92.9731C96.2368 92.9731 97.3984 94.2871 97.3984 96.4453V96.915H92.5171V96.9785C92.5615 98.229 93.2661 99.0161 94.3579 99.0161C95.1831 99.0161 95.748 98.7114 96.002 98.1528ZM94.3071 94.084C93.2979 94.084 92.5933 94.8203 92.5171 95.9312H96.0083C95.9766 94.814 95.3164 94.084 94.3071 94.084ZM99.0361 100V93.1064H100.35V94.1538H100.452C100.648 93.4746 101.417 92.9858 102.318 92.9858C102.521 92.9858 102.781 93.0049 102.927 93.0366V94.3188C102.813 94.2871 102.407 94.2427 102.166 94.2427C101.131 94.2427 100.401 94.9092 100.401 95.8804V100H99.0361ZM110.132 93.1064L107.644 100H106.177L103.683 93.1064H105.143L106.863 98.6035H106.971L108.685 93.1064H110.132ZM112.22 91.875C111.744 91.875 111.357 91.4878 111.357 91.0181C111.357 90.542 111.744 90.1548 112.22 90.1548C112.696 90.1548 113.083 90.542 113.083 91.0181C113.083 91.4878 112.696 91.875 112.22 91.875ZM111.541 100V93.1064H112.899V100H111.541ZM120.758 95.3218H119.431C119.272 94.6489 118.714 94.1348 117.8 94.1348C116.657 94.1348 115.959 95.0361 115.959 96.5278C115.959 98.0513 116.664 98.9717 117.8 98.9717C118.663 98.9717 119.253 98.5654 119.431 97.8164H120.758C120.58 99.1748 119.514 100.133 117.806 100.133C115.794 100.133 114.562 98.7622 114.562 96.5278C114.562 94.3379 115.788 92.9731 117.8 92.9731C119.533 92.9731 120.58 93.9824 120.758 95.3218ZM126.852 98.1528H128.166C127.867 99.3716 126.75 100.133 125.169 100.133C123.189 100.133 121.977 98.7686 121.977 96.5659C121.977 94.376 123.214 92.9731 125.163 92.9731C127.086 92.9731 128.248 94.2871 128.248 96.4453V96.915H123.367V96.9785C123.411 98.229 124.116 99.0161 125.208 99.0161C126.033 99.0161 126.598 98.7114 126.852 98.1528ZM125.157 94.084C124.147 94.084 123.443 94.8203 123.367 95.9312H126.858C126.826 94.814 126.166 94.084 125.157 94.084Z" fill="#CCCCCC"/>
<rect width="300" height="22" transform="translate(0 106)" fill="white" fill-opacity="0.06"/>
<path d="M45.08 117L40.7067 112.68L41.3467 112.04L45.9867 116.733V117.32L41.3467 122.013L40.7067 121.373L45.08 117Z" fill="#CCCCCC"/>
<path d="M56.6991 112.36H67.8771C68.0495 112.359 68.215 112.427 68.3373 112.549C68.4596 112.67 68.5287 112.835 68.5294 113.008V113.008C68.5287 113.18 68.4596 113.345 68.3373 113.466C68.215 113.588 68.0495 113.656 67.8771 113.655H56.6991C56.5268 113.656 56.3613 113.588 56.239 113.466C56.1167 113.345 56.0476 113.18 56.0469 113.008V113.008C56.0476 112.835 56.1167 112.67 56.239 112.549C56.3613 112.427 56.5268 112.359 56.6991 112.36Z" fill="#CCCCCC"/>
<path d="M56.6991 116.273H67.8771C68.0495 116.273 68.215 116.341 68.3373 116.462C68.4596 116.584 68.5287 116.749 68.5294 116.921C68.5287 117.093 68.4596 117.258 68.3373 117.38C68.215 117.501 68.0495 117.569 67.8771 117.569H56.6991C56.5268 117.569 56.3613 117.501 56.239 117.38C56.1167 117.258 56.0476 117.093 56.0469 116.921C56.0476 116.749 56.1167 116.584 56.239 116.462C56.3613 116.341 56.5268 116.273 56.6991 116.273V116.273Z" fill="#CCCCCC"/>
<path d="M56.6991 120.339H67.8771C68.0495 120.338 68.215 120.406 68.3373 120.528C68.4596 120.649 68.5287 120.814 68.5294 120.987V120.987C68.5287 121.159 68.4596 121.324 68.3373 121.445C68.215 121.567 68.0495 121.635 67.8771 121.634H56.6991C56.5268 121.635 56.3613 121.567 56.239 121.445C56.1167 121.324 56.0476 121.159 56.0469 120.987V120.987C56.0476 120.814 56.1167 120.649 56.239 120.528C56.3613 120.406 56.5268 120.338 56.6991 120.339V120.339Z" fill="#CCCCCC"/>
<path d="M54.1795 111.824C54.4923 111.824 54.7923 111.948 55.0135 112.169C55.2346 112.39 55.3589 112.69 55.3589 113.003V113.003C55.3589 113.158 55.3284 113.311 55.2691 113.454C55.2099 113.597 55.123 113.727 55.0135 113.837C54.9039 113.947 54.7739 114.033 54.6308 114.093C54.4877 114.152 54.3343 114.182 54.1795 114.182V114.182C53.8666 114.182 53.5667 114.058 53.3455 113.837C53.1243 113.616 53 113.316 53 113.003V113.003C53 112.69 53.1243 112.39 53.3455 112.169C53.5667 111.948 53.8666 111.824 54.1795 111.824V111.824ZM54.1795 115.746C54.4923 115.746 54.7923 115.87 55.0135 116.092C55.2346 116.313 55.3589 116.613 55.3589 116.926V116.926C55.3589 117.238 55.2346 117.538 55.0135 117.76C54.7923 117.981 54.4923 118.105 54.1795 118.105V118.105C53.8666 118.105 53.5667 117.981 53.3455 117.76C53.1243 117.538 53 117.238 53 116.926V116.926C53 116.613 53.1243 116.313 53.3455 116.092C53.5667 115.87 53.8666 115.746 54.1795 115.746V115.746ZM54.1795 119.803C54.3343 119.803 54.4877 119.833 54.6308 119.892C54.7739 119.952 54.9039 120.039 55.0135 120.148C55.123 120.258 55.2099 120.388 55.2691 120.531C55.3284 120.674 55.3589 120.827 55.3589 120.982V120.982C55.3589 121.295 55.2346 121.595 55.0135 121.816C54.7923 122.037 54.4923 122.162 54.1795 122.162V122.162C53.8666 122.162 53.5667 122.037 53.3455 121.816C53.1243 121.595 53 121.295 53 120.982V120.982C53 120.669 53.1243 120.369 53.3455 120.148C53.5667 119.927 53.8666 119.803 54.1795 119.803V119.803ZM54.1795 119.807C54.3347 119.807 54.4885 119.838 54.6318 119.897C54.7752 119.957 54.9055 120.044 55.015 120.154C55.1246 120.264 55.2114 120.395 55.2704 120.538C55.3294 120.682 55.3595 120.836 55.3589 120.991V120.991C55.3589 121.304 55.2346 121.604 55.0135 121.825C54.7923 122.046 54.4923 122.171 54.1795 122.171V122.171C53.8666 122.171 53.5667 122.046 53.3455 121.825C53.1243 121.604 53 121.304 53 120.991V120.991C52.9994 120.836 53.0295 120.682 53.0885 120.538C53.1475 120.395 53.2343 120.264 53.3439 120.154C53.4535 120.044 53.5837 119.957 53.7271 119.897C53.8705 119.838 54.0242 119.807 54.1795 119.807V119.807Z" fill="#CCCCCC"/>
<path d="M82.0776 122L81.2397 119.524H77.7485L76.9043 122H75.4443L78.7515 112.84H80.2812L83.5884 122H82.0776ZM79.4434 114.459L78.1104 118.382H80.8779L79.5513 114.459H79.4434ZM85.188 112.84H88.7744C90.5645 112.84 91.7959 114.072 91.7959 115.875C91.7959 117.639 90.5264 118.871 88.73 118.871H86.6099V122H85.188V112.84ZM86.6099 114.04V117.677H88.3999C89.625 117.677 90.3423 117.023 90.3423 115.875C90.3423 114.688 89.6504 114.04 88.3999 114.04H86.6099ZM95.0522 122H93.6304V112.84H95.0522V122ZM97.0327 117.036C97.0327 115.836 98.1562 114.973 99.7178 114.973C101.273 114.973 102.289 115.697 102.422 116.89H101.114C100.987 116.376 100.492 116.04 99.7178 116.04C98.9561 116.04 98.3784 116.414 98.3784 116.973C98.3784 117.398 98.7275 117.665 99.4766 117.842L100.625 118.109C101.939 118.414 102.555 118.979 102.555 119.981C102.555 121.264 101.343 122.133 99.6924 122.133C98.0483 122.133 96.9756 121.391 96.855 120.191H98.2197C98.3911 120.73 98.8989 121.067 99.7241 121.067C100.575 121.067 101.178 120.673 101.178 120.108C101.178 119.677 100.854 119.397 100.162 119.232L98.9561 118.947C97.6421 118.642 97.0327 118.058 97.0327 117.036Z" fill="#CCCCCC"/>
<g clip-path="url(#clip2_6184_10303)">
<path d="M25.08 139L20.7067 134.68L21.3467 134.04L25.9867 138.733V139.32L21.3467 144.013L20.7067 143.373L25.08 139Z" fill="#CCCCCC"/>
<g clip-path="url(#clip3_6184_10303)">
<path d="M45.053 137.391C45.2242 137.22 45.36 137.017 45.4527 136.794C45.5453 136.57 45.593 136.331 45.593 136.089C45.593 135.847 45.5453 135.608 45.4527 135.384C45.36 135.161 45.2242 134.958 45.053 134.787V134.787L41.8885 131.613C41.7184 131.442 41.5161 131.307 41.2934 131.214C41.0707 131.122 40.8319 131.074 40.5907 131.074C40.3496 131.074 40.1108 131.122 39.888 131.214C39.6653 131.307 39.4631 131.442 39.293 131.613V131.613L36.1285 134.787C35.787 135.134 35.5957 135.602 35.5957 136.089C35.5957 136.576 35.787 137.044 36.1285 137.391L38.7952 140.058C38.8895 140.156 38.9435 140.286 38.9463 140.422V145.329C38.9451 145.411 38.9602 145.493 38.9907 145.569C39.0212 145.645 39.0666 145.715 39.1241 145.773L40.3241 146.973C40.3615 147.014 40.4069 147.046 40.4574 147.068C40.5078 147.09 40.5623 147.101 40.6174 147.101C40.6725 147.101 40.727 147.09 40.7774 147.068C40.8279 147.046 40.8733 147.014 40.9107 146.973L42.0752 145.809L42.7596 145.125C42.7828 145.103 42.8012 145.077 42.8138 145.048C42.8265 145.019 42.833 144.987 42.833 144.956C42.833 144.924 42.8265 144.893 42.8138 144.864C42.8012 144.835 42.7828 144.808 42.7596 144.787L42.2707 144.289C42.2455 144.265 42.2253 144.236 42.2116 144.204C42.1978 144.172 42.1907 144.137 42.1907 144.102C42.1907 144.067 42.1978 144.033 42.2116 144.001C42.2253 143.969 42.2455 143.94 42.2707 143.916L42.7596 143.418C42.7828 143.396 42.8012 143.37 42.8138 143.341C42.8265 143.312 42.833 143.281 42.833 143.249C42.833 143.217 42.8265 143.186 42.8138 143.157C42.8012 143.128 42.7828 143.102 42.7596 143.08L42.2441 142.556C42.219 142.532 42.1991 142.504 42.1854 142.473C42.1718 142.441 42.1647 142.408 42.1647 142.373C42.1647 142.339 42.1718 142.305 42.1854 142.274C42.1991 142.243 42.219 142.214 42.2441 142.191L42.7774 141.667C42.8005 141.645 42.819 141.619 42.8316 141.59C42.8442 141.561 42.8507 141.53 42.8507 141.498C42.8507 141.466 42.8442 141.435 42.8316 141.406C42.819 141.377 42.8005 141.351 42.7774 141.329L42.093 140.636V140.387L45.053 137.391ZM40.6085 132.378C40.8156 132.38 41.0175 132.443 41.1888 132.559C41.3601 132.675 41.4932 132.84 41.5712 133.031C41.6492 133.223 41.6687 133.434 41.6273 133.637C41.5858 133.84 41.4852 134.026 41.3382 134.172C41.1911 134.317 41.0042 134.416 40.801 134.456C40.5978 134.496 40.3873 134.475 40.1962 134.395C40.0051 134.315 39.8418 134.181 39.7269 134.009C39.612 133.836 39.5507 133.634 39.5507 133.427C39.5496 133.289 39.5756 133.153 39.6273 133.026C39.6791 132.899 39.7555 132.783 39.8522 132.686C39.9489 132.588 40.0639 132.511 40.1907 132.458C40.3174 132.405 40.4534 132.378 40.5907 132.378H40.6085Z" fill="url(#paint3_radial_6184_10303)"/>
<path opacity="0.75" d="M39.773 145.409C39.8065 145.429 39.8447 145.441 39.8839 145.441C39.9231 145.442 39.9618 145.433 39.9961 145.414C40.0303 145.395 40.059 145.367 40.0792 145.333C40.0993 145.3 40.1102 145.262 40.1108 145.222V141.267C40.1111 141.229 40.1024 141.191 40.0854 141.157C40.0684 141.123 40.0436 141.094 40.013 141.071C39.9788 141.048 39.9387 141.035 39.8974 141.033C39.8561 141.031 39.8151 141.041 39.7791 141.062C39.743 141.082 39.7134 141.112 39.6935 141.148C39.6736 141.184 39.6642 141.225 39.6663 141.267V145.222C39.6684 145.26 39.6791 145.296 39.6976 145.328C39.7161 145.361 39.7419 145.388 39.773 145.409V145.409Z" fill="#FF9300"/>
<path opacity="0.75" d="M42.9821 135.845H38.3421C38.185 135.845 38.0576 135.972 38.0576 136.129V136.173C38.0576 136.331 38.185 136.458 38.3421 136.458H42.9821C43.1392 136.458 43.2665 136.331 43.2665 136.173V136.129C43.2665 135.972 43.1392 135.845 42.9821 135.845Z" fill="#FF9300"/>
<path opacity="0.75" d="M42.9821 136.84H38.3421C38.185 136.84 38.0576 136.967 38.0576 137.124V137.169C38.0576 137.326 38.185 137.453 38.3421 137.453H42.9821C43.1392 137.453 43.2665 137.326 43.2665 137.169V137.124C43.2665 136.967 43.1392 136.84 42.9821 136.84Z" fill="#FF9300"/>
</g>
<rect x="55" y="134" width="111" height="10" rx="5" fill="#797775"/>
</g>
<g clip-path="url(#clip4_6184_10303)">
<path d="M25.08 161L20.7067 156.68L21.3467 156.04L25.9867 160.733V161.32L21.3467 166.013L20.7067 165.373L25.08 161Z" fill="#CCCCCC"/>
<g clip-path="url(#clip5_6184_10303)">
<path d="M45.053 159.391C45.2242 159.22 45.36 159.017 45.4527 158.794C45.5453 158.57 45.593 158.331 45.593 158.089C45.593 157.847 45.5453 157.608 45.4527 157.384C45.36 157.161 45.2242 156.958 45.053 156.787V156.787L41.8885 153.613C41.7184 153.442 41.5161 153.307 41.2934 153.214C41.0707 153.122 40.8319 153.074 40.5907 153.074C40.3496 153.074 40.1108 153.122 39.888 153.214C39.6653 153.307 39.4631 153.442 39.293 153.613V153.613L36.1285 156.787C35.787 157.134 35.5957 157.602 35.5957 158.089C35.5957 158.576 35.787 159.044 36.1285 159.391L38.7952 162.058C38.8895 162.156 38.9435 162.286 38.9463 162.422V167.329C38.9451 167.411 38.9602 167.493 38.9907 167.569C39.0212 167.645 39.0666 167.715 39.1241 167.773L40.3241 168.973C40.3615 169.014 40.4069 169.046 40.4574 169.068C40.5078 169.09 40.5623 169.101 40.6174 169.101C40.6725 169.101 40.727 169.09 40.7774 169.068C40.8279 169.046 40.8733 169.014 40.9107 168.973L42.0752 167.809L42.7596 167.125C42.7828 167.103 42.8012 167.077 42.8138 167.048C42.8265 167.019 42.833 166.987 42.833 166.956C42.833 166.924 42.8265 166.893 42.8138 166.864C42.8012 166.835 42.7828 166.808 42.7596 166.787L42.2707 166.289C42.2455 166.265 42.2253 166.236 42.2116 166.204C42.1978 166.172 42.1907 166.137 42.1907 166.102C42.1907 166.067 42.1978 166.033 42.2116 166.001C42.2253 165.969 42.2455 165.94 42.2707 165.916L42.7596 165.418C42.7828 165.396 42.8012 165.37 42.8138 165.341C42.8265 165.312 42.833 165.281 42.833 165.249C42.833 165.217 42.8265 165.186 42.8138 165.157C42.8012 165.128 42.7828 165.102 42.7596 165.08L42.2441 164.556C42.219 164.532 42.1991 164.504 42.1854 164.473C42.1718 164.441 42.1647 164.408 42.1647 164.373C42.1647 164.339 42.1718 164.305 42.1854 164.274C42.1991 164.243 42.219 164.214 42.2441 164.191L42.7774 163.667C42.8005 163.645 42.819 163.619 42.8316 163.59C42.8442 163.561 42.8507 163.53 42.8507 163.498C42.8507 163.466 42.8442 163.435 42.8316 163.406C42.819 163.377 42.8005 163.351 42.7774 163.329L42.093 162.636V162.387L45.053 159.391ZM40.6085 154.378C40.8156 154.38 41.0175 154.443 41.1888 154.559C41.3601 154.675 41.4932 154.84 41.5712 155.031C41.6492 155.223 41.6687 155.434 41.6273 155.637C41.5858 155.84 41.4852 156.026 41.3382 156.172C41.1911 156.317 41.0042 156.416 40.801 156.456C40.5978 156.496 40.3873 156.475 40.1962 156.395C40.0051 156.315 39.8418 156.181 39.7269 156.009C39.612 155.836 39.5507 155.634 39.5507 155.427C39.5496 155.289 39.5756 155.153 39.6273 155.026C39.6791 154.899 39.7555 154.783 39.8522 154.686C39.9489 154.588 40.0639 154.511 40.1907 154.458C40.3174 154.405 40.4534 154.378 40.5907 154.378H40.6085Z" fill="url(#paint4_radial_6184_10303)"/>
<path opacity="0.75" d="M39.773 167.409C39.8065 167.429 39.8447 167.441 39.8839 167.441C39.9231 167.442 39.9618 167.433 39.9961 167.414C40.0303 167.395 40.059 167.367 40.0792 167.333C40.0993 167.3 40.1102 167.262 40.1108 167.222V163.267C40.1111 163.229 40.1024 163.191 40.0854 163.157C40.0684 163.123 40.0436 163.094 40.013 163.071C39.9788 163.048 39.9387 163.035 39.8974 163.033C39.8561 163.031 39.8151 163.041 39.7791 163.062C39.743 163.082 39.7134 163.112 39.6935 163.148C39.6736 163.184 39.6642 163.225 39.6663 163.267V167.222C39.6684 167.26 39.6791 167.296 39.6976 167.328C39.7161 167.361 39.7419 167.388 39.773 167.409V167.409Z" fill="#FF9300"/>
<path opacity="0.75" d="M42.9821 157.845H38.3421C38.185 157.845 38.0576 157.972 38.0576 158.129V158.173C38.0576 158.331 38.185 158.458 38.3421 158.458H42.9821C43.1392 158.458 43.2665 158.331 43.2665 158.173V158.129C43.2665 157.972 43.1392 157.845 42.9821 157.845Z" fill="#FF9300"/>
<path opacity="0.75" d="M42.9821 158.84H38.3421C38.185 158.84 38.0576 158.967 38.0576 159.124V159.169C38.0576 159.326 38.185 159.453 38.3421 159.453H42.9821C43.1392 159.453 43.2665 159.326 43.2665 159.169V159.124C43.2665 158.967 43.1392 158.84 42.9821 158.84Z" fill="#FF9300"/>
</g>
<rect x="55" y="156" width="89" height="10" rx="5" fill="#797775"/>
</g>
<g clip-path="url(#clip6_6184_10303)">
<path d="M25.08 183L20.7067 178.68L21.3467 178.04L25.9867 182.733V183.32L21.3467 188.013L20.7067 187.373L25.08 183Z" fill="#CCCCCC"/>
<g clip-path="url(#clip7_6184_10303)">
<path d="M45.053 181.391C45.2242 181.22 45.36 181.017 45.4527 180.794C45.5453 180.57 45.593 180.331 45.593 180.089C45.593 179.847 45.5453 179.608 45.4527 179.384C45.36 179.161 45.2242 178.958 45.053 178.787V178.787L41.8885 175.613C41.7184 175.442 41.5161 175.307 41.2934 175.214C41.0707 175.122 40.8319 175.074 40.5907 175.074C40.3496 175.074 40.1108 175.122 39.888 175.214C39.6653 175.307 39.4631 175.442 39.293 175.613V175.613L36.1285 178.787C35.787 179.134 35.5957 179.602 35.5957 180.089C35.5957 180.576 35.787 181.044 36.1285 181.391L38.7952 184.058C38.8895 184.156 38.9435 184.286 38.9463 184.422V189.329C38.9451 189.411 38.9602 189.493 38.9907 189.569C39.0212 189.645 39.0666 189.715 39.1241 189.773L40.3241 190.973C40.3615 191.014 40.4069 191.046 40.4574 191.068C40.5078 191.09 40.5623 191.101 40.6174 191.101C40.6725 191.101 40.727 191.09 40.7774 191.068C40.8279 191.046 40.8733 191.014 40.9107 190.973L42.0752 189.809L42.7596 189.125C42.7828 189.103 42.8012 189.077 42.8138 189.048C42.8265 189.019 42.833 188.987 42.833 188.956C42.833 188.924 42.8265 188.893 42.8138 188.864C42.8012 188.835 42.7828 188.808 42.7596 188.787L42.2707 188.289C42.2455 188.265 42.2253 188.236 42.2116 188.204C42.1978 188.172 42.1907 188.137 42.1907 188.102C42.1907 188.067 42.1978 188.033 42.2116 188.001C42.2253 187.969 42.2455 187.94 42.2707 187.916L42.7596 187.418C42.7828 187.396 42.8012 187.37 42.8138 187.341C42.8265 187.312 42.833 187.281 42.833 187.249C42.833 187.217 42.8265 187.186 42.8138 187.157C42.8012 187.128 42.7828 187.102 42.7596 187.08L42.2441 186.556C42.219 186.532 42.1991 186.504 42.1854 186.473C42.1718 186.441 42.1647 186.408 42.1647 186.373C42.1647 186.339 42.1718 186.305 42.1854 186.274C42.1991 186.243 42.219 186.214 42.2441 186.191L42.7774 185.667C42.8005 185.645 42.819 185.619 42.8316 185.59C42.8442 185.561 42.8507 185.53 42.8507 185.498C42.8507 185.466 42.8442 185.435 42.8316 185.406C42.819 185.377 42.8005 185.351 42.7774 185.329L42.093 184.636V184.387L45.053 181.391ZM40.6085 176.378C40.8156 176.38 41.0175 176.443 41.1888 176.559C41.3601 176.675 41.4932 176.84 41.5712 177.031C41.6492 177.223 41.6687 177.434 41.6273 177.637C41.5858 177.84 41.4852 178.026 41.3382 178.172C41.1911 178.317 41.0042 178.416 40.801 178.456C40.5978 178.496 40.3873 178.475 40.1962 178.395C40.0051 178.315 39.8418 178.181 39.7269 178.009C39.612 177.836 39.5507 177.634 39.5507 177.427C39.5496 177.289 39.5756 177.153 39.6273 177.026C39.6791 176.899 39.7555 176.783 39.8522 176.686C39.9489 176.588 40.0639 176.511 40.1907 176.458C40.3174 176.405 40.4534 176.378 40.5907 176.378H40.6085Z" fill="url(#paint5_radial_6184_10303)"/>
<path opacity="0.75" d="M39.773 189.409C39.8065 189.429 39.8447 189.441 39.8839 189.441C39.9231 189.442 39.9618 189.433 39.9961 189.414C40.0303 189.395 40.059 189.367 40.0792 189.333C40.0993 189.3 40.1102 189.262 40.1108 189.222V185.267C40.1111 185.229 40.1024 185.191 40.0854 185.157C40.0684 185.123 40.0436 185.094 40.013 185.071C39.9788 185.048 39.9387 185.035 39.8974 185.033C39.8561 185.031 39.8151 185.041 39.7791 185.062C39.743 185.082 39.7134 185.112 39.6935 185.148C39.6736 185.184 39.6642 185.225 39.6663 185.267V189.222C39.6684 189.26 39.6791 189.296 39.6976 189.328C39.7161 189.361 39.7419 189.388 39.773 189.409V189.409Z" fill="#FF9300"/>
<path opacity="0.75" d="M42.9821 179.845H38.3421C38.185 179.845 38.0576 179.972 38.0576 180.129V180.173C38.0576 180.331 38.185 180.458 38.3421 180.458H42.9821C43.1392 180.458 43.2665 180.331 43.2665 180.173V180.129C43.2665 179.972 43.1392 179.845 42.9821 179.845Z" fill="#FF9300"/>
<path opacity="0.75" d="M42.9821 180.84H38.3421C38.185 180.84 38.0576 180.967 38.0576 181.124V181.169C38.0576 181.326 38.185 181.453 38.3421 181.453H42.9821C43.1392 181.453 43.2665 181.326 43.2665 181.169V181.124C43.2665 180.967 43.1392 180.84 42.9821 180.84Z" fill="#FF9300"/>
</g>
<rect x="55" y="178" width="71" height="10" rx="5" fill="#797775"/>
</g>
<g clip-path="url(#clip8_6184_10303)">
<path d="M25.08 205L20.7067 200.68L21.3467 200.04L25.9867 204.733V205.32L21.3467 210.013L20.7067 209.373L25.08 205Z" fill="#CCCCCC"/>
<g clip-path="url(#clip9_6184_10303)">
<path d="M45.053 203.391C45.2242 203.22 45.36 203.017 45.4527 202.794C45.5453 202.57 45.593 202.331 45.593 202.089C45.593 201.847 45.5453 201.608 45.4527 201.384C45.36 201.161 45.2242 200.958 45.053 200.787V200.787L41.8885 197.613C41.7184 197.442 41.5161 197.307 41.2934 197.214C41.0707 197.122 40.8319 197.074 40.5907 197.074C40.3496 197.074 40.1108 197.122 39.888 197.214C39.6653 197.307 39.4631 197.442 39.293 197.613V197.613L36.1285 200.787C35.787 201.134 35.5957 201.602 35.5957 202.089C35.5957 202.576 35.787 203.044 36.1285 203.391L38.7952 206.058C38.8895 206.156 38.9435 206.286 38.9463 206.422V211.329C38.9451 211.411 38.9602 211.493 38.9907 211.569C39.0212 211.645 39.0666 211.715 39.1241 211.773L40.3241 212.973C40.3615 213.014 40.4069 213.046 40.4574 213.068C40.5078 213.09 40.5623 213.101 40.6174 213.101C40.6725 213.101 40.727 213.09 40.7774 213.068C40.8279 213.046 40.8733 213.014 40.9107 212.973L42.0752 211.809L42.7596 211.125C42.7828 211.103 42.8012 211.077 42.8138 211.048C42.8265 211.019 42.833 210.987 42.833 210.956C42.833 210.924 42.8265 210.893 42.8138 210.864C42.8012 210.835 42.7828 210.808 42.7596 210.787L42.2707 210.289C42.2455 210.265 42.2253 210.236 42.2116 210.204C42.1978 210.172 42.1907 210.137 42.1907 210.102C42.1907 210.067 42.1978 210.033 42.2116 210.001C42.2253 209.969 42.2455 209.94 42.2707 209.916L42.7596 209.418C42.7828 209.396 42.8012 209.37 42.8138 209.341C42.8265 209.312 42.833 209.281 42.833 209.249C42.833 209.217 42.8265 209.186 42.8138 209.157C42.8012 209.128 42.7828 209.102 42.7596 209.08L42.2441 208.556C42.219 208.532 42.1991 208.504 42.1854 208.473C42.1718 208.441 42.1647 208.408 42.1647 208.373C42.1647 208.339 42.1718 208.305 42.1854 208.274C42.1991 208.243 42.219 208.214 42.2441 208.191L42.7774 207.667C42.8005 207.645 42.819 207.619 42.8316 207.59C42.8442 207.561 42.8507 207.53 42.8507 207.498C42.8507 207.466 42.8442 207.435 42.8316 207.406C42.819 207.377 42.8005 207.351 42.7774 207.329L42.093 206.636V206.387L45.053 203.391ZM40.6085 198.378C40.8156 198.38 41.0175 198.443 41.1888 198.559C41.3601 198.675 41.4932 198.84 41.5712 199.031C41.6492 199.223 41.6687 199.434 41.6273 199.637C41.5858 199.84 41.4852 200.026 41.3382 200.172C41.1911 200.317 41.0042 200.416 40.801 200.456C40.5978 200.496 40.3873 200.475 40.1962 200.395C40.0051 200.315 39.8418 200.181 39.7269 200.009C39.612 199.836 39.5507 199.634 39.5507 199.427C39.5496 199.289 39.5756 199.153 39.6273 199.026C39.6791 198.899 39.7555 198.783 39.8522 198.686C39.9489 198.588 40.0639 198.511 40.1907 198.458C40.3174 198.405 40.4534 198.378 40.5907 198.378H40.6085Z" fill="url(#paint6_radial_6184_10303)"/>
<path opacity="0.75" d="M39.773 211.409C39.8065 211.429 39.8447 211.441 39.8839 211.441C39.9231 211.442 39.9618 211.433 39.9961 211.414C40.0303 211.395 40.059 211.367 40.0792 211.333C40.0993 211.3 40.1102 211.262 40.1108 211.222V207.267C40.1111 207.229 40.1024 207.191 40.0854 207.157C40.0684 207.123 40.0436 207.094 40.013 207.071C39.9788 207.048 39.9387 207.035 39.8974 207.033C39.8561 207.031 39.8151 207.041 39.7791 207.062C39.743 207.082 39.7134 207.112 39.6935 207.148C39.6736 207.184 39.6642 207.225 39.6663 207.267V211.222C39.6684 211.26 39.6791 211.296 39.6976 211.328C39.7161 211.361 39.7419 211.388 39.773 211.409V211.409Z" fill="#FF9300"/>
<path opacity="0.75" d="M42.9821 201.845H38.3421C38.185 201.845 38.0576 201.972 38.0576 202.129V202.173C38.0576 202.331 38.185 202.458 38.3421 202.458H42.9821C43.1392 202.458 43.2665 202.331 43.2665 202.173V202.129C43.2665 201.972 43.1392 201.845 42.9821 201.845Z" fill="#FF9300"/>
<path opacity="0.75" d="M42.9821 202.84H38.3421C38.185 202.84 38.0576 202.967 38.0576 203.124V203.169C38.0576 203.326 38.185 203.453 38.3421 203.453H42.9821C43.1392 203.453 43.2665 203.326 43.2665 203.169V203.124C43.2665 202.967 43.1392 202.84 42.9821 202.84Z" fill="#FF9300"/>
</g>
<rect x="55" y="200" width="111" height="10" rx="5" fill="#797775"/>
</g>
<g filter="url(#filter0_d_6184_10303)">
<rect x="158" y="94" width="262" height="209" rx="5" fill="#1F1F1F"/>
<rect x="157.5" y="93.5" width="263" height="210" rx="5.5" stroke="#454545"/>
<path d="M196.571 117H195.149V107.84H196.571V117ZM198.71 117V110.106H200.024V111.205H200.125C200.43 110.43 201.128 109.973 202.049 109.973C202.995 109.973 203.648 110.462 203.953 111.205H204.061C204.41 110.462 205.204 109.973 206.162 109.973C207.559 109.973 208.371 110.811 208.371 112.246V117H207.006V112.576C207.006 111.624 206.562 111.16 205.667 111.16C204.785 111.16 204.207 111.808 204.207 112.639V117H202.868V112.436C202.868 111.649 202.347 111.16 201.535 111.16C200.703 111.16 200.075 111.865 200.075 112.766V117H198.71ZM213.875 109.986C215.633 109.986 216.744 111.363 216.744 113.553C216.744 115.73 215.633 117.114 213.887 117.114C212.903 117.114 212.123 116.689 211.761 115.959H211.653V119.298H210.288V110.106H211.602V111.249H211.704C212.123 110.462 212.935 109.986 213.875 109.986ZM213.487 115.946C214.649 115.946 215.341 115.051 215.341 113.553C215.341 112.055 214.649 111.154 213.494 111.154C212.345 111.154 211.627 112.074 211.627 113.553C211.627 115.026 212.345 115.946 213.487 115.946ZM221.308 117.133C219.283 117.133 218.045 115.781 218.045 113.553C218.045 111.332 219.289 109.973 221.308 109.973C223.32 109.973 224.564 111.325 224.564 113.553C224.564 115.781 223.326 117.133 221.308 117.133ZM221.308 115.972C222.488 115.972 223.161 115.083 223.161 113.553C223.161 112.017 222.488 111.128 221.308 111.128C220.121 111.128 219.454 112.017 219.454 113.553C219.454 115.089 220.121 115.972 221.308 115.972ZM226.208 117V110.106H227.522V111.154H227.624C227.82 110.475 228.588 109.986 229.49 109.986C229.693 109.986 229.953 110.005 230.099 110.037V111.319C229.985 111.287 229.579 111.243 229.337 111.243C228.303 111.243 227.573 111.909 227.573 112.88V117H226.208ZM232.251 108.367H233.616V110.125H235.114V111.217H233.616V114.854C233.616 115.597 233.914 115.921 234.593 115.921C234.803 115.921 234.923 115.908 235.114 115.889V116.975C234.892 117.013 234.638 117.044 234.371 117.044C232.854 117.044 232.251 116.511 232.251 115.185V111.217H231.153V110.125H232.251V108.367ZM240.763 117V111.217H239.627V110.125H240.763V109.383C240.763 108.012 241.461 107.339 242.896 107.339C243.207 107.339 243.474 107.364 243.708 107.402V108.431C243.582 108.412 243.397 108.399 243.182 108.399C242.42 108.399 242.109 108.748 242.109 109.446V110.125H243.651V111.217H242.128V117H240.763ZM245.2 117V110.106H246.514V111.154H246.616C246.812 110.475 247.581 109.986 248.482 109.986C248.685 109.986 248.945 110.005 249.091 110.037V111.319C248.977 111.287 248.571 111.243 248.33 111.243C247.295 111.243 246.565 111.909 246.565 112.88V117H245.2ZM253.147 117.133C251.123 117.133 249.885 115.781 249.885 113.553C249.885 111.332 251.129 109.973 253.147 109.973C255.16 109.973 256.404 111.325 256.404 113.553C256.404 115.781 255.166 117.133 253.147 117.133ZM253.147 115.972C254.328 115.972 255.001 115.083 255.001 113.553C255.001 112.017 254.328 111.128 253.147 111.128C251.96 111.128 251.294 112.017 251.294 113.553C251.294 115.089 251.96 115.972 253.147 115.972ZM258.048 117V110.106H259.362V111.205H259.463C259.768 110.43 260.466 109.973 261.387 109.973C262.333 109.973 262.986 110.462 263.291 111.205H263.399C263.748 110.462 264.542 109.973 265.5 109.973C266.896 109.973 267.709 110.811 267.709 112.246V117H266.344V112.576C266.344 111.624 265.9 111.16 265.005 111.16C264.123 111.16 263.545 111.808 263.545 112.639V117H262.206V112.436C262.206 111.649 261.685 111.16 260.873 111.16C260.041 111.16 259.413 111.865 259.413 112.766V117H258.048ZM277.243 107.618C279.877 107.618 281.515 109.472 281.515 112.417C281.515 115.356 279.89 117.222 277.243 117.222C274.577 117.222 272.965 115.362 272.965 112.417C272.965 109.465 274.615 107.618 277.243 107.618ZM277.243 108.875C275.51 108.875 274.418 110.246 274.418 112.417C274.418 114.569 275.479 115.965 277.243 115.965C278.982 115.965 280.062 114.569 280.062 112.417C280.062 110.246 278.976 108.875 277.243 108.875ZM286.873 109.986C288.631 109.986 289.742 111.363 289.742 113.553C289.742 115.73 288.631 117.114 286.885 117.114C285.901 117.114 285.121 116.689 284.759 115.959H284.651V119.298H283.286V110.106H284.6V111.249H284.702C285.121 110.462 285.933 109.986 286.873 109.986ZM286.485 115.946C287.647 115.946 288.339 115.051 288.339 113.553C288.339 112.055 287.647 111.154 286.492 111.154C285.343 111.154 284.625 112.074 284.625 113.553C284.625 115.026 285.343 115.946 286.485 115.946ZM295.918 115.153H297.232C296.934 116.372 295.816 117.133 294.236 117.133C292.255 117.133 291.043 115.769 291.043 113.566C291.043 111.376 292.281 109.973 294.229 109.973C296.153 109.973 297.314 111.287 297.314 113.445V113.915H292.433V113.979C292.478 115.229 293.182 116.016 294.274 116.016C295.099 116.016 295.664 115.711 295.918 115.153ZM294.223 111.084C293.214 111.084 292.509 111.82 292.433 112.931H295.924C295.893 111.814 295.232 111.084 294.223 111.084ZM298.952 117V110.106H300.266V111.198H300.368C300.704 110.437 301.39 109.973 302.431 109.973C303.973 109.973 304.824 110.894 304.824 112.538V117H303.459V112.861C303.459 111.719 302.977 111.16 301.967 111.16C300.958 111.16 300.317 111.846 300.317 112.957V117H298.952ZM312.834 117L311.997 114.524H308.505L307.661 117H306.201L309.508 107.84H311.038L314.345 117H312.834ZM310.2 109.459L308.867 113.382H311.635L310.308 109.459H310.2ZM315.945 107.84H319.531C321.321 107.84 322.553 109.072 322.553 110.875C322.553 112.639 321.283 113.871 319.487 113.871H317.367V117H315.945V107.84ZM317.367 109.04V112.677H319.157C320.382 112.677 321.099 112.023 321.099 110.875C321.099 109.688 320.407 109.04 319.157 109.04H317.367ZM325.809 117H324.387V107.84H325.809V117ZM331.992 117V111.217H330.855V110.125H331.992V109.383C331.992 108.012 332.69 107.339 334.125 107.339C334.436 107.339 334.702 107.364 334.937 107.402V108.431C334.81 108.412 334.626 108.399 334.41 108.399C333.648 108.399 333.337 108.748 333.337 109.446V110.125H334.88V111.217H333.356V117H331.992ZM337.133 108.875C336.657 108.875 336.27 108.488 336.27 108.018C336.27 107.542 336.657 107.155 337.133 107.155C337.609 107.155 337.997 107.542 337.997 108.018C337.997 108.488 337.609 108.875 337.133 108.875ZM336.454 117V110.106H337.812V117H336.454ZM339.882 117V107.402H341.247V117H339.882ZM347.829 115.153H349.143C348.845 116.372 347.728 117.133 346.147 117.133C344.167 117.133 342.954 115.769 342.954 113.566C342.954 111.376 344.192 109.973 346.141 109.973C348.064 109.973 349.226 111.287 349.226 113.445V113.915H344.344V113.979C344.389 115.229 345.093 116.016 346.185 116.016C347.01 116.016 347.575 115.711 347.829 115.153ZM346.134 111.084C345.125 111.084 344.42 111.82 344.344 112.931H347.835C347.804 111.814 347.144 111.084 346.134 111.084Z" fill="#CCCCCC"/>
<rect x="162" y="126" width="254" height="28" rx="3" fill="#04395E"/>
<path d="M196.571 145H195.149V135.84H196.571V145ZM198.71 145V138.106H200.024V139.205H200.125C200.43 138.43 201.128 137.973 202.049 137.973C202.995 137.973 203.648 138.462 203.953 139.205H204.061C204.41 138.462 205.204 137.973 206.162 137.973C207.559 137.973 208.371 138.811 208.371 140.246V145H207.006V140.576C207.006 139.624 206.562 139.16 205.667 139.16C204.785 139.16 204.207 139.808 204.207 140.639V145H202.868V140.436C202.868 139.649 202.347 139.16 201.535 139.16C200.703 139.16 200.075 139.865 200.075 140.766V145H198.71ZM213.875 137.986C215.633 137.986 216.744 139.363 216.744 141.553C216.744 143.73 215.633 145.114 213.887 145.114C212.903 145.114 212.123 144.689 211.761 143.959H211.653V147.298H210.288V138.106H211.602V139.249H211.704C212.123 138.462 212.935 137.986 213.875 137.986ZM213.487 143.946C214.649 143.946 215.341 143.051 215.341 141.553C215.341 140.055 214.649 139.154 213.494 139.154C212.345 139.154 211.627 140.074 211.627 141.553C211.627 143.026 212.345 143.946 213.487 143.946ZM221.308 145.133C219.283 145.133 218.045 143.781 218.045 141.553C218.045 139.332 219.289 137.973 221.308 137.973C223.32 137.973 224.564 139.325 224.564 141.553C224.564 143.781 223.326 145.133 221.308 145.133ZM221.308 143.972C222.488 143.972 223.161 143.083 223.161 141.553C223.161 140.017 222.488 139.128 221.308 139.128C220.121 139.128 219.454 140.017 219.454 141.553C219.454 143.089 220.121 143.972 221.308 143.972ZM226.208 145V138.106H227.522V139.154H227.624C227.82 138.475 228.588 137.986 229.49 137.986C229.693 137.986 229.953 138.005 230.099 138.037V139.319C229.985 139.287 229.579 139.243 229.337 139.243C228.303 139.243 227.573 139.909 227.573 140.88V145H226.208ZM232.251 136.367H233.616V138.125H235.114V139.217H233.616V142.854C233.616 143.597 233.914 143.921 234.593 143.921C234.803 143.921 234.923 143.908 235.114 143.889V144.975C234.892 145.013 234.638 145.044 234.371 145.044C232.854 145.044 232.251 144.511 232.251 143.185V139.217H231.153V138.125H232.251V136.367ZM240.763 145V139.217H239.627V138.125H240.763V137.383C240.763 136.012 241.461 135.339 242.896 135.339C243.207 135.339 243.474 135.364 243.708 135.402V136.431C243.582 136.412 243.397 136.399 243.182 136.399C242.42 136.399 242.109 136.748 242.109 137.446V138.125H243.651V139.217H242.128V145H240.763ZM245.2 145V138.106H246.514V139.154H246.616C246.812 138.475 247.581 137.986 248.482 137.986C248.685 137.986 248.945 138.005 249.091 138.037V139.319C248.977 139.287 248.571 139.243 248.33 139.243C247.295 139.243 246.565 139.909 246.565 140.88V145H245.2ZM253.147 145.133C251.123 145.133 249.885 143.781 249.885 141.553C249.885 139.332 251.129 137.973 253.147 137.973C255.16 137.973 256.404 139.325 256.404 141.553C256.404 143.781 255.166 145.133 253.147 145.133ZM253.147 143.972C254.328 143.972 255.001 143.083 255.001 141.553C255.001 140.017 254.328 139.128 253.147 139.128C251.96 139.128 251.294 140.017 251.294 141.553C251.294 143.089 251.96 143.972 253.147 143.972ZM258.048 145V138.106H259.362V139.205H259.463C259.768 138.43 260.466 137.973 261.387 137.973C262.333 137.973 262.986 138.462 263.291 139.205H263.399C263.748 138.462 264.542 137.973 265.5 137.973C266.896 137.973 267.709 138.811 267.709 140.246V145H266.344V140.576C266.344 139.624 265.9 139.16 265.005 139.16C264.123 139.16 263.545 139.808 263.545 140.639V145H262.206V140.436C262.206 139.649 261.685 139.16 260.873 139.16C260.041 139.16 259.413 139.865 259.413 140.766V145H258.048ZM277.243 135.618C279.877 135.618 281.515 137.472 281.515 140.417C281.515 143.356 279.89 145.222 277.243 145.222C274.577 145.222 272.965 143.362 272.965 140.417C272.965 137.465 274.615 135.618 277.243 135.618ZM277.243 136.875C275.51 136.875 274.418 138.246 274.418 140.417C274.418 142.569 275.479 143.965 277.243 143.965C278.982 143.965 280.062 142.569 280.062 140.417C280.062 138.246 278.976 136.875 277.243 136.875ZM286.873 137.986C288.631 137.986 289.742 139.363 289.742 141.553C289.742 143.73 288.631 145.114 286.885 145.114C285.901 145.114 285.121 144.689 284.759 143.959H284.651V147.298H283.286V138.106H284.6V139.249H284.702C285.121 138.462 285.933 137.986 286.873 137.986ZM286.485 143.946C287.647 143.946 288.339 143.051 288.339 141.553C288.339 140.055 287.647 139.154 286.492 139.154C285.343 139.154 284.625 140.074 284.625 141.553C284.625 143.026 285.343 143.946 286.485 143.946ZM295.918 143.153H297.232C296.934 144.372 295.816 145.133 294.236 145.133C292.255 145.133 291.043 143.769 291.043 141.566C291.043 139.376 292.281 137.973 294.229 137.973C296.153 137.973 297.314 139.287 297.314 141.445V141.915H292.433V141.979C292.478 143.229 293.182 144.016 294.274 144.016C295.099 144.016 295.664 143.711 295.918 143.153ZM294.223 139.084C293.214 139.084 292.509 139.82 292.433 140.931H295.924C295.893 139.814 295.232 139.084 294.223 139.084ZM298.952 145V138.106H300.266V139.198H300.368C300.704 138.437 301.39 137.973 302.431 137.973C303.973 137.973 304.824 138.894 304.824 140.538V145H303.459V140.861C303.459 139.719 302.977 139.16 301.967 139.16C300.958 139.16 300.317 139.846 300.317 140.957V145H298.952ZM312.834 145L311.997 142.524H308.505L307.661 145H306.201L309.508 135.84H311.038L314.345 145H312.834ZM310.2 137.459L308.867 141.382H311.635L310.308 137.459H310.2ZM315.945 135.84H319.531C321.321 135.84 322.553 137.072 322.553 138.875C322.553 140.639 321.283 141.871 319.487 141.871H317.367V145H315.945V135.84ZM317.367 137.04V140.677H319.157C320.382 140.677 321.099 140.023 321.099 138.875C321.099 137.688 320.407 137.04 319.157 137.04H317.367ZM325.809 145H324.387V135.84H325.809V145ZM331.566 145V135.402H332.931V145H331.566ZM335.686 136.875C335.21 136.875 334.823 136.488 334.823 136.018C334.823 135.542 335.21 135.155 335.686 135.155C336.162 135.155 336.549 135.542 336.549 136.018C336.549 136.488 336.162 136.875 335.686 136.875ZM335.007 145V138.106H336.365V145H335.007ZM338.371 145V138.106H339.685V139.198H339.787C340.123 138.437 340.809 137.973 341.85 137.973C343.392 137.973 344.243 138.894 344.243 140.538V145H342.878V140.861C342.878 139.719 342.396 139.16 341.386 139.16C340.377 139.16 339.736 139.846 339.736 140.957V145H338.371ZM347.702 141.014L350.444 138.106H352.057L349.213 141.058L352.247 145H350.571L348.197 141.915L347.594 142.493V145H346.229V135.402H347.594V141.014H347.702Z" fill="white"/>
<rect x="158" y="159" width="262" height="1" fill="#454545"/>
<path d="M196.571 184H195.149V174.84H196.571V184ZM198.71 184V177.106H200.024V178.205H200.125C200.43 177.43 201.128 176.973 202.049 176.973C202.995 176.973 203.648 177.462 203.953 178.205H204.061C204.41 177.462 205.204 176.973 206.162 176.973C207.559 176.973 208.371 177.811 208.371 179.246V184H207.006V179.576C207.006 178.624 206.562 178.16 205.667 178.16C204.785 178.16 204.207 178.808 204.207 179.639V184H202.868V179.436C202.868 178.649 202.347 178.16 201.535 178.16C200.703 178.16 200.075 178.865 200.075 179.766V184H198.71ZM213.875 176.986C215.633 176.986 216.744 178.363 216.744 180.553C216.744 182.73 215.633 184.114 213.887 184.114C212.903 184.114 212.123 183.689 211.761 182.959H211.653V186.298H210.288V177.106H211.602V178.249H211.704C212.123 177.462 212.935 176.986 213.875 176.986ZM213.487 182.946C214.649 182.946 215.341 182.051 215.341 180.553C215.341 179.055 214.649 178.154 213.494 178.154C212.345 178.154 211.627 179.074 211.627 180.553C211.627 182.026 212.345 182.946 213.487 182.946ZM221.308 184.133C219.283 184.133 218.045 182.781 218.045 180.553C218.045 178.332 219.289 176.973 221.308 176.973C223.32 176.973 224.564 178.325 224.564 180.553C224.564 182.781 223.326 184.133 221.308 184.133ZM221.308 182.972C222.488 182.972 223.161 182.083 223.161 180.553C223.161 179.017 222.488 178.128 221.308 178.128C220.121 178.128 219.454 179.017 219.454 180.553C219.454 182.089 220.121 182.972 221.308 182.972ZM226.208 184V177.106H227.522V178.154H227.624C227.82 177.475 228.588 176.986 229.49 176.986C229.693 176.986 229.953 177.005 230.099 177.037V178.319C229.985 178.287 229.579 178.243 229.337 178.243C228.303 178.243 227.573 178.909 227.573 179.88V184H226.208ZM232.251 175.367H233.616V177.125H235.114V178.217H233.616V181.854C233.616 182.597 233.914 182.921 234.593 182.921C234.803 182.921 234.923 182.908 235.114 182.889V183.975C234.892 184.013 234.638 184.044 234.371 184.044C232.854 184.044 232.251 183.511 232.251 182.185V178.217H231.153V177.125H232.251V175.367ZM240.763 184V178.217H239.627V177.125H240.763V176.383C240.763 175.012 241.461 174.339 242.896 174.339C243.207 174.339 243.474 174.364 243.708 174.402V175.431C243.582 175.412 243.397 175.399 243.182 175.399C242.42 175.399 242.109 175.748 242.109 176.446V177.125H243.651V178.217H242.128V184H240.763ZM245.2 184V177.106H246.514V178.154H246.616C246.812 177.475 247.581 176.986 248.482 176.986C248.685 176.986 248.945 177.005 249.091 177.037V178.319C248.977 178.287 248.571 178.243 248.33 178.243C247.295 178.243 246.565 178.909 246.565 179.88V184H245.2ZM253.147 184.133C251.123 184.133 249.885 182.781 249.885 180.553C249.885 178.332 251.129 176.973 253.147 176.973C255.16 176.973 256.404 178.325 256.404 180.553C256.404 182.781 255.166 184.133 253.147 184.133ZM253.147 182.972C254.328 182.972 255.001 182.083 255.001 180.553C255.001 179.017 254.328 178.128 253.147 178.128C251.96 178.128 251.294 179.017 251.294 180.553C251.294 182.089 251.96 182.972 253.147 182.972ZM258.048 184V177.106H259.362V178.205H259.463C259.768 177.43 260.466 176.973 261.387 176.973C262.333 176.973 262.986 177.462 263.291 178.205H263.399C263.748 177.462 264.542 176.973 265.5 176.973C266.896 176.973 267.709 177.811 267.709 179.246V184H266.344V179.576C266.344 178.624 265.9 178.16 265.005 178.16C264.123 178.16 263.545 178.808 263.545 179.639V184H262.206V179.436C262.206 178.649 261.685 178.16 260.873 178.16C260.041 178.16 259.413 178.865 259.413 179.766V184H258.048ZM279.268 184L278.43 181.524H274.939L274.095 184H272.635L275.942 174.84H277.472L280.779 184H279.268ZM276.634 176.459L275.301 180.382H278.068L276.742 176.459H276.634ZM281.934 184V183.105L285.736 178.306V178.205H281.959V177.106H287.368V178.052L283.648 182.794V182.902H287.406V184H281.934ZM295.055 177.106V184H293.741V182.908H293.633C293.296 183.689 292.592 184.133 291.544 184.133C290.015 184.133 289.164 183.2 289.164 181.582V177.106H290.529V181.245C290.529 182.388 290.979 182.934 291.982 182.934C293.087 182.934 293.69 182.261 293.69 181.15V177.106H295.055ZM297.035 184V177.106H298.349V178.154H298.451C298.647 177.475 299.416 176.986 300.317 176.986C300.52 176.986 300.78 177.005 300.926 177.037V178.319C300.812 178.287 300.406 178.243 300.165 178.243C299.13 178.243 298.4 178.909 298.4 179.88V184H297.035ZM306.595 182.153H307.909C307.61 183.372 306.493 184.133 304.913 184.133C302.932 184.133 301.72 182.769 301.72 180.566C301.72 178.376 302.958 176.973 304.906 176.973C306.83 176.973 307.991 178.287 307.991 180.445V180.915H303.11V180.979C303.154 182.229 303.859 183.016 304.951 183.016C305.776 183.016 306.341 182.711 306.595 182.153ZM304.9 178.084C303.891 178.084 303.186 178.82 303.11 179.931H306.601C306.569 178.814 305.909 178.084 304.9 178.084ZM313.672 184V178.217H312.536V177.125H313.672V176.383C313.672 175.012 314.371 174.339 315.805 174.339C316.116 174.339 316.383 174.364 316.618 174.402V175.431C316.491 175.412 316.307 175.399 316.091 175.399C315.329 175.399 315.018 175.748 315.018 176.446V177.125H316.561V178.217H315.037V184H313.672ZM323.937 177.106V184H322.623V182.908H322.515C322.178 183.689 321.474 184.133 320.426 184.133C318.896 184.133 318.046 183.2 318.046 181.582V177.106H319.411V181.245C319.411 182.388 319.861 182.934 320.864 182.934C321.969 182.934 322.572 182.261 322.572 181.15V177.106H323.937ZM325.917 184V177.106H327.231V178.198H327.333C327.669 177.437 328.354 176.973 329.396 176.973C330.938 176.973 331.789 177.894 331.789 179.538V184H330.424V179.861C330.424 178.719 329.941 178.16 328.932 178.16C327.923 178.16 327.282 178.846 327.282 179.957V184H325.917ZM339.564 179.322H338.238C338.079 178.649 337.521 178.135 336.606 178.135C335.464 178.135 334.766 179.036 334.766 180.528C334.766 182.051 335.47 182.972 336.606 182.972C337.47 182.972 338.06 182.565 338.238 181.816H339.564C339.387 183.175 338.32 184.133 336.613 184.133C334.601 184.133 333.369 182.762 333.369 180.528C333.369 178.338 334.594 176.973 336.606 176.973C338.339 176.973 339.387 177.982 339.564 179.322ZM341.71 175.367H343.075V177.125H344.573V178.217H343.075V181.854C343.075 182.597 343.373 182.921 344.052 182.921C344.262 182.921 344.382 182.908 344.573 182.889V183.975C344.351 184.013 344.097 184.044 343.83 184.044C342.313 184.044 341.71 183.511 341.71 182.185V178.217H340.612V177.125H341.71V175.367ZM346.883 175.875C346.407 175.875 346.02 175.488 346.02 175.018C346.02 174.542 346.407 174.155 346.883 174.155C347.359 174.155 347.747 174.542 347.747 175.018C347.747 175.488 347.359 175.875 346.883 175.875ZM346.204 184V177.106H347.562V184H346.204ZM352.488 184.133C350.463 184.133 349.226 182.781 349.226 180.553C349.226 178.332 350.47 176.973 352.488 176.973C354.5 176.973 355.745 178.325 355.745 180.553C355.745 182.781 354.507 184.133 352.488 184.133ZM352.488 182.972C353.669 182.972 354.342 182.083 354.342 180.553C354.342 179.017 353.669 178.128 352.488 178.128C351.301 178.128 350.635 179.017 350.635 180.553C350.635 182.089 351.301 182.972 352.488 182.972ZM357.389 184V177.106H358.703V178.198H358.804C359.141 177.437 359.826 176.973 360.867 176.973C362.41 176.973 363.26 177.894 363.26 179.538V184H361.896V179.861C361.896 178.719 361.413 178.16 360.404 178.16C359.395 178.16 358.753 178.846 358.753 179.957V184H357.389ZM365.025 179.036C365.025 177.836 366.148 176.973 367.71 176.973C369.265 176.973 370.281 177.697 370.414 178.89H369.106C368.979 178.376 368.484 178.04 367.71 178.04C366.948 178.04 366.371 178.414 366.371 178.973C366.371 179.398 366.72 179.665 367.469 179.842L368.618 180.109C369.932 180.414 370.547 180.979 370.547 181.981C370.547 183.264 369.335 184.133 367.685 184.133C366.041 184.133 364.968 183.391 364.847 182.191H366.212C366.383 182.73 366.891 183.067 367.716 183.067C368.567 183.067 369.17 182.673 369.17 182.108C369.17 181.677 368.846 181.397 368.154 181.232L366.948 180.947C365.634 180.642 365.025 180.058 365.025 179.036Z" fill="#CCCCCC"/>
<path d="M196.571 212H195.149V202.84H196.571V212ZM198.71 212V205.106H200.024V206.205H200.125C200.43 205.43 201.128 204.973 202.049 204.973C202.995 204.973 203.648 205.462 203.953 206.205H204.061C204.41 205.462 205.204 204.973 206.162 204.973C207.559 204.973 208.371 205.811 208.371 207.246V212H207.006V207.576C207.006 206.624 206.562 206.16 205.667 206.16C204.785 206.16 204.207 206.808 204.207 207.639V212H202.868V207.436C202.868 206.649 202.347 206.16 201.535 206.16C200.703 206.16 200.075 206.865 200.075 207.766V212H198.71ZM213.875 204.986C215.633 204.986 216.744 206.363 216.744 208.553C216.744 210.73 215.633 212.114 213.887 212.114C212.903 212.114 212.123 211.689 211.761 210.959H211.653V214.298H210.288V205.106H211.602V206.249H211.704C212.123 205.462 212.935 204.986 213.875 204.986ZM213.487 210.946C214.649 210.946 215.341 210.051 215.341 208.553C215.341 207.055 214.649 206.154 213.494 206.154C212.345 206.154 211.627 207.074 211.627 208.553C211.627 210.026 212.345 210.946 213.487 210.946ZM221.308 212.133C219.283 212.133 218.045 210.781 218.045 208.553C218.045 206.332 219.289 204.973 221.308 204.973C223.32 204.973 224.564 206.325 224.564 208.553C224.564 210.781 223.326 212.133 221.308 212.133ZM221.308 210.972C222.488 210.972 223.161 210.083 223.161 208.553C223.161 207.017 222.488 206.128 221.308 206.128C220.121 206.128 219.454 207.017 219.454 208.553C219.454 210.089 220.121 210.972 221.308 210.972ZM226.208 212V205.106H227.522V206.154H227.624C227.82 205.475 228.588 204.986 229.49 204.986C229.693 204.986 229.953 205.005 230.099 205.037V206.319C229.985 206.287 229.579 206.243 229.337 206.243C228.303 206.243 227.573 206.909 227.573 207.88V212H226.208ZM232.251 203.367H233.616V205.125H235.114V206.217H233.616V209.854C233.616 210.597 233.914 210.921 234.593 210.921C234.803 210.921 234.923 210.908 235.114 210.889V211.975C234.892 212.013 234.638 212.044 234.371 212.044C232.854 212.044 232.251 211.511 232.251 210.185V206.217H231.153V205.125H232.251V203.367ZM240.763 212V206.217H239.627V205.125H240.763V204.383C240.763 203.012 241.461 202.339 242.896 202.339C243.207 202.339 243.474 202.364 243.708 202.402V203.431C243.582 203.412 243.397 203.399 243.182 203.399C242.42 203.399 242.109 203.748 242.109 204.446V205.125H243.651V206.217H242.128V212H240.763ZM247.854 212.133C245.829 212.133 244.591 210.781 244.591 208.553C244.591 206.332 245.835 204.973 247.854 204.973C249.866 204.973 251.11 206.325 251.11 208.553C251.11 210.781 249.872 212.133 247.854 212.133ZM247.854 210.972C249.034 210.972 249.707 210.083 249.707 208.553C249.707 207.017 249.034 206.128 247.854 206.128C246.667 206.128 246 207.017 246 208.553C246 210.089 246.667 210.972 247.854 210.972ZM252.754 212V205.106H254.068V206.154H254.169C254.366 205.475 255.134 204.986 256.036 204.986C256.239 204.986 256.499 205.005 256.645 205.037V206.319C256.531 206.287 256.125 206.243 255.883 206.243C254.849 206.243 254.119 206.909 254.119 207.88V212H252.754ZM258.061 212V205.106H259.375V206.205H259.476C259.781 205.43 260.479 204.973 261.399 204.973C262.345 204.973 262.999 205.462 263.304 206.205H263.412C263.761 205.462 264.554 204.973 265.513 204.973C266.909 204.973 267.722 205.811 267.722 207.246V212H266.357V207.576C266.357 206.624 265.913 206.16 265.018 206.16C264.135 206.16 263.558 206.808 263.558 207.639V212H262.218V207.436C262.218 206.649 261.698 206.16 260.885 206.16C260.054 206.16 259.425 206.865 259.425 207.766V212H258.061ZM279.281 212L278.443 209.524H274.952L274.107 212H272.647L275.955 202.84H277.484L280.792 212H279.281ZM276.646 204.459L275.313 208.382H278.081L276.754 204.459H276.646ZM281.947 212V211.105L285.749 206.306V206.205H281.972V205.106H287.38V206.052L283.661 210.794V210.902H287.418V212H281.947ZM295.067 205.106V212H293.753V210.908H293.646C293.309 211.689 292.604 212.133 291.557 212.133C290.027 212.133 289.177 211.2 289.177 209.582V205.106H290.542V209.245C290.542 210.388 290.992 210.934 291.995 210.934C293.1 210.934 293.703 210.261 293.703 209.15V205.106H295.067ZM297.048 212V205.106H298.362V206.154H298.463C298.66 205.475 299.428 204.986 300.33 204.986C300.533 204.986 300.793 205.005 300.939 205.037V206.319C300.825 206.287 300.418 206.243 300.177 206.243C299.143 206.243 298.413 206.909 298.413 207.88V212H297.048ZM306.607 210.153H307.921C307.623 211.372 306.506 212.133 304.925 212.133C302.945 212.133 301.732 210.769 301.732 208.566C301.732 206.376 302.97 204.973 304.919 204.973C306.842 204.973 308.004 206.287 308.004 208.445V208.915H303.123V208.979C303.167 210.229 303.872 211.016 304.963 211.016C305.789 211.016 306.354 210.711 306.607 210.153ZM304.913 206.084C303.903 206.084 303.199 206.82 303.123 207.931H306.614C306.582 206.814 305.922 206.084 304.913 206.084ZM319.284 212L318.446 209.524H314.955L314.11 212H312.65L315.958 202.84H317.487L320.794 212H319.284ZM316.649 204.459L315.316 208.382H318.084L316.757 204.459H316.649ZM325.822 204.986C327.58 204.986 328.691 206.363 328.691 208.553C328.691 210.73 327.58 212.114 325.834 212.114C324.851 212.114 324.07 211.689 323.708 210.959H323.6V214.298H322.235V205.106H323.549V206.249H323.651C324.07 205.462 324.882 204.986 325.822 204.986ZM325.435 210.946C326.596 210.946 327.288 210.051 327.288 208.553C327.288 207.055 326.596 206.154 325.441 206.154C324.292 206.154 323.575 207.074 323.575 208.553C323.575 210.026 324.292 210.946 325.435 210.946ZM333.921 204.986C335.68 204.986 336.791 206.363 336.791 208.553C336.791 210.73 335.68 212.114 333.934 212.114C332.95 212.114 332.169 211.689 331.808 210.959H331.7V214.298H330.335V205.106H331.649V206.249H331.75C332.169 205.462 332.982 204.986 333.921 204.986ZM333.534 210.946C334.696 210.946 335.388 210.051 335.388 208.553C335.388 207.055 334.696 206.154 333.541 206.154C332.392 206.154 331.674 207.074 331.674 208.553C331.674 210.026 332.392 210.946 333.534 210.946ZM341.716 209.556H343.125C343.246 210.445 344.097 211.01 345.322 211.01C346.464 211.01 347.302 210.407 347.302 209.569C347.302 208.852 346.769 208.407 345.557 208.115L344.376 207.83C342.719 207.43 341.964 206.643 341.964 205.31C341.964 203.697 343.297 202.618 345.296 202.618C347.156 202.618 348.515 203.697 348.597 205.227H347.213C347.08 204.357 346.344 203.824 345.277 203.824C344.154 203.824 343.405 204.376 343.405 205.233C343.405 205.9 343.887 206.281 345.081 206.573L346.09 206.82C347.969 207.271 348.743 208.026 348.743 209.397C348.743 211.13 347.385 212.222 345.214 212.222C343.183 212.222 341.818 211.181 341.716 209.556ZM354.989 210.153H356.303C356.005 211.372 354.888 212.133 353.307 212.133C351.327 212.133 350.114 210.769 350.114 208.566C350.114 206.376 351.352 204.973 353.301 204.973C355.224 204.973 356.386 206.287 356.386 208.445V208.915H351.504V208.979C351.549 210.229 352.253 211.016 353.345 211.016C354.17 211.016 354.735 210.711 354.989 210.153ZM353.294 206.084C352.285 206.084 351.581 206.82 351.504 207.931H354.996C354.964 206.814 354.304 206.084 353.294 206.084ZM358.023 212V205.106H359.337V206.154H359.439C359.636 205.475 360.404 204.986 361.305 204.986C361.508 204.986 361.769 205.005 361.915 205.037V206.319C361.8 206.287 361.394 206.243 361.153 206.243C360.118 206.243 359.388 206.909 359.388 207.88V212H358.023ZM369.119 205.106L366.631 212H365.165L362.67 205.106H364.13L365.85 210.604H365.958L367.672 205.106H369.119ZM371.208 203.875C370.731 203.875 370.344 203.488 370.344 203.018C370.344 202.542 370.731 202.155 371.208 202.155C371.684 202.155 372.071 202.542 372.071 203.018C372.071 203.488 371.684 203.875 371.208 203.875ZM370.528 212V205.106H371.887V212H370.528ZM379.745 207.322H378.418C378.26 206.649 377.701 206.135 376.787 206.135C375.645 206.135 374.946 207.036 374.946 208.528C374.946 210.051 375.651 210.972 376.787 210.972C377.65 210.972 378.241 210.565 378.418 209.816H379.745C379.567 211.175 378.501 212.133 376.793 212.133C374.781 212.133 373.55 210.762 373.55 208.528C373.55 206.338 374.775 204.973 376.787 204.973C378.52 204.973 379.567 205.982 379.745 207.322ZM385.839 210.153H387.153C386.854 211.372 385.737 212.133 384.157 212.133C382.176 212.133 380.964 210.769 380.964 208.566C380.964 206.376 382.202 204.973 384.15 204.973C386.074 204.973 387.235 206.287 387.235 208.445V208.915H382.354V208.979C382.398 210.229 383.103 211.016 384.195 211.016C385.02 211.016 385.585 210.711 385.839 210.153ZM384.144 206.084C383.135 206.084 382.43 206.82 382.354 207.931H385.845C385.813 206.814 385.153 206.084 384.144 206.084Z" fill="#CCCCCC"/>
<rect x="158" y="226" width="262" height="1" fill="#454545"/>
<path d="M196.571 247.477V251H195.149V241.84H198.773C200.621 241.84 201.808 242.932 201.808 244.64C201.808 245.877 201.147 246.88 200.03 247.255L202.087 251H200.443L198.577 247.477H196.571ZM196.571 243.034V246.309H198.615C199.713 246.309 200.348 245.719 200.348 244.671C200.348 243.649 199.675 243.034 198.577 243.034H196.571ZM208.003 249.153H209.317C209.019 250.372 207.901 251.133 206.321 251.133C204.34 251.133 203.128 249.769 203.128 247.566C203.128 245.376 204.366 243.973 206.314 243.973C208.238 243.973 209.399 245.287 209.399 247.445V247.915H204.518V247.979C204.562 249.229 205.267 250.016 206.359 250.016C207.184 250.016 207.749 249.711 208.003 249.153ZM206.308 245.084C205.299 245.084 204.594 245.82 204.518 246.931H208.009C207.978 245.814 207.317 245.084 206.308 245.084ZM211.526 251V245.217H210.39V244.125H211.526V243.383C211.526 242.012 212.224 241.339 213.659 241.339C213.97 241.339 214.236 241.364 214.471 241.402V242.431C214.344 242.412 214.16 242.399 213.944 242.399C213.183 242.399 212.872 242.748 212.872 243.446V244.125H214.414V245.217H212.891V251H211.526ZM215.963 251V244.106H217.277V245.154H217.378C217.575 244.475 218.343 243.986 219.245 243.986C219.448 243.986 219.708 244.005 219.854 244.037V245.319C219.74 245.287 219.333 245.243 219.092 245.243C218.058 245.243 217.328 245.909 217.328 246.88V251H215.963ZM225.522 249.153H226.836C226.538 250.372 225.421 251.133 223.84 251.133C221.86 251.133 220.647 249.769 220.647 247.566C220.647 245.376 221.885 243.973 223.834 243.973C225.757 243.973 226.919 245.287 226.919 247.445V247.915H222.038V247.979C222.082 249.229 222.787 250.016 223.878 250.016C224.704 250.016 225.269 249.711 225.522 249.153ZM223.828 245.084C222.818 245.084 222.114 245.82 222.038 246.931H225.529C225.497 245.814 224.837 245.084 223.828 245.084ZM228.398 246.036C228.398 244.836 229.521 243.973 231.083 243.973C232.638 243.973 233.654 244.697 233.787 245.89H232.479C232.353 245.376 231.857 245.04 231.083 245.04C230.321 245.04 229.744 245.414 229.744 245.973C229.744 246.398 230.093 246.665 230.842 246.842L231.991 247.109C233.305 247.414 233.92 247.979 233.92 248.981C233.92 250.264 232.708 251.133 231.058 251.133C229.414 251.133 228.341 250.391 228.22 249.191H229.585C229.756 249.73 230.264 250.067 231.089 250.067C231.94 250.067 232.543 249.673 232.543 249.108C232.543 248.677 232.219 248.397 231.527 248.232L230.321 247.947C229.007 247.642 228.398 247.058 228.398 246.036ZM235.628 251V241.402H236.98V245.205H237.088C237.424 244.437 238.154 243.979 239.195 243.979C240.668 243.979 241.576 244.913 241.576 246.544V251H240.211V246.868C240.211 245.731 239.697 245.167 238.732 245.167C237.615 245.167 236.993 245.884 236.993 246.963V251H235.628Z" fill="#CCCCCC"/>
<path d="M387.515 245.42H386.646C385.611 245.42 384.767 244.602 384.767 243.561C384.767 242.52 385.604 241.675 386.646 241.675C387.68 241.675 388.524 242.52 388.524 243.561V244.424H390.499V243.561C390.499 242.52 391.343 241.675 392.377 241.675C393.418 241.675 394.263 242.52 394.263 243.561C394.263 244.602 393.418 245.42 392.377 245.42H391.514V247.42H392.377C393.418 247.426 394.263 248.239 394.263 249.28C394.263 250.321 393.418 251.165 392.377 251.165C391.343 251.165 390.499 250.321 390.499 249.28V248.423H388.524V249.28C388.524 250.321 387.68 251.165 386.646 251.165C385.604 251.165 384.767 250.321 384.767 249.28C384.767 248.239 385.611 247.426 386.646 247.42H387.515V245.42ZM386.658 244.437H387.515V243.573C387.515 243.084 387.115 242.691 386.646 242.691C386.176 242.691 385.782 243.084 385.782 243.561C385.782 244.043 386.176 244.437 386.658 244.437ZM392.365 244.437C392.854 244.437 393.241 244.043 393.241 243.561C393.241 243.084 392.854 242.691 392.377 242.691C391.908 242.691 391.514 243.084 391.514 243.573V244.437H392.365ZM388.524 247.433H390.499V245.414H388.524V247.433ZM386.658 248.404C386.176 248.404 385.782 248.797 385.782 249.273C385.782 249.756 386.176 250.143 386.646 250.143C387.115 250.143 387.515 249.75 387.515 249.261V248.404H386.658ZM392.365 248.404H391.514V249.261C391.514 249.75 391.908 250.143 392.377 250.143C392.854 250.143 393.241 249.756 393.241 249.273C393.241 248.797 392.854 248.404 392.365 248.404ZM396.25 248.556H397.659C397.779 249.445 398.63 250.01 399.855 250.01C400.998 250.01 401.835 249.407 401.835 248.569C401.835 247.852 401.302 247.407 400.09 247.115L398.909 246.83C397.252 246.43 396.497 245.643 396.497 244.31C396.497 242.697 397.83 241.618 399.83 241.618C401.689 241.618 403.048 242.697 403.13 244.227H401.747C401.613 243.357 400.877 242.824 399.811 242.824C398.687 242.824 397.938 243.376 397.938 244.233C397.938 244.9 398.42 245.281 399.614 245.573L400.623 245.82C402.502 246.271 403.276 247.026 403.276 248.397C403.276 250.13 401.918 251.222 399.747 251.222C397.716 251.222 396.351 250.181 396.25 248.556Z" fill="#9D9D9D"/>
<rect x="158" y="265" width="262" height="1" fill="#454545"/>
<path d="M196.571 290H195.149V280.84H200.868V282.065H196.571V284.966H200.506V286.166H196.571V290ZM203.261 281.875C202.785 281.875 202.398 281.488 202.398 281.018C202.398 280.542 202.785 280.155 203.261 280.155C203.737 280.155 204.125 280.542 204.125 281.018C204.125 281.488 203.737 281.875 203.261 281.875ZM202.582 290V283.106H203.94V290H202.582ZM206.01 290V280.402H207.375V290H206.01ZM209.907 281.367H211.272V283.125H212.77V284.217H211.272V287.854C211.272 288.597 211.57 288.921 212.25 288.921C212.459 288.921 212.58 288.908 212.77 288.889V289.975C212.548 290.013 212.294 290.044 212.027 290.044C210.51 290.044 209.907 289.511 209.907 288.185V284.217H208.809V283.125H209.907V281.367ZM218.832 288.153H220.146C219.848 289.372 218.73 290.133 217.15 290.133C215.169 290.133 213.957 288.769 213.957 286.566C213.957 284.376 215.195 282.973 217.144 282.973C219.067 282.973 220.229 284.287 220.229 286.445V286.915H215.347V286.979C215.392 288.229 216.096 289.016 217.188 289.016C218.013 289.016 218.578 288.711 218.832 288.153ZM217.137 284.084C216.128 284.084 215.423 284.82 215.347 285.931H218.838C218.807 284.814 218.146 284.084 217.137 284.084ZM221.866 290V283.106H223.18V284.154H223.282C223.479 283.475 224.247 282.986 225.148 282.986C225.351 282.986 225.611 283.005 225.757 283.037V284.319C225.643 284.287 225.237 284.243 224.996 284.243C223.961 284.243 223.231 284.909 223.231 285.88V290H221.866ZM236.713 290L235.875 287.524H232.384L231.54 290H230.08L233.387 280.84H234.917L238.224 290H236.713ZM234.079 282.459L232.746 286.382H235.514L234.187 282.459H234.079ZM239.824 280.84H243.41C245.2 280.84 246.432 282.072 246.432 283.875C246.432 285.639 245.162 286.871 243.366 286.871H241.246V290H239.824V280.84ZM241.246 282.04V285.677H243.036C244.261 285.677 244.978 285.023 244.978 283.875C244.978 282.688 244.286 282.04 243.036 282.04H241.246ZM249.688 290H248.266V280.84H249.688V290ZM251.668 285.036C251.668 283.836 252.792 282.973 254.354 282.973C255.909 282.973 256.924 283.697 257.058 284.89H255.75C255.623 284.376 255.128 284.04 254.354 284.04C253.592 284.04 253.014 284.414 253.014 284.973C253.014 285.398 253.363 285.665 254.112 285.842L255.261 286.109C256.575 286.414 257.191 286.979 257.191 287.981C257.191 289.264 255.979 290.133 254.328 290.133C252.684 290.133 251.611 289.391 251.491 288.191H252.855C253.027 288.73 253.535 289.067 254.36 289.067C255.21 289.067 255.813 288.673 255.813 288.108C255.813 287.677 255.49 287.397 254.798 287.232L253.592 286.947C252.278 286.642 251.668 286.058 251.668 285.036Z" fill="#CCCCCC"/>
<path d="M383.199 284.42H382.329C381.294 284.42 380.45 283.602 380.45 282.561C380.45 281.52 381.288 280.675 382.329 280.675C383.364 280.675 384.208 281.52 384.208 282.561V283.424H386.182V282.561C386.182 281.52 387.026 280.675 388.061 280.675C389.102 280.675 389.946 281.52 389.946 282.561C389.946 283.602 389.102 284.42 388.061 284.42H387.198V286.42H388.061C389.102 286.426 389.946 287.239 389.946 288.28C389.946 289.321 389.102 290.165 388.061 290.165C387.026 290.165 386.182 289.321 386.182 288.28V287.423H384.208V288.28C384.208 289.321 383.364 290.165 382.329 290.165C381.288 290.165 380.45 289.321 380.45 288.28C380.45 287.239 381.294 286.426 382.329 286.42H383.199V284.42ZM382.342 283.437H383.199V282.573C383.199 282.084 382.799 281.691 382.329 281.691C381.859 281.691 381.466 282.084 381.466 282.561C381.466 283.043 381.859 283.437 382.342 283.437ZM388.048 283.437C388.537 283.437 388.924 283.043 388.924 282.561C388.924 282.084 388.537 281.691 388.061 281.691C387.591 281.691 387.198 282.084 387.198 282.573V283.437H388.048ZM384.208 286.433H386.182V284.414H384.208V286.433ZM382.342 287.404C381.859 287.404 381.466 287.797 381.466 288.273C381.466 288.756 381.859 289.143 382.329 289.143C382.799 289.143 383.199 288.75 383.199 288.261V287.404H382.342ZM388.048 287.404H387.198V288.261C387.198 288.75 387.591 289.143 388.061 289.143C388.537 289.143 388.924 288.756 388.924 288.273C388.924 287.797 388.537 287.404 388.048 287.404ZM397.557 283.151L395.596 290H394.25L391.781 280.84H393.26L394.942 287.962H395.031L396.941 280.84H398.262L400.185 287.962H400.274L401.95 280.84H403.429L400.953 290H399.614L397.646 283.151H397.557Z" fill="#9D9D9D"/>
</g>
<defs>
<filter id="filter0_d_6184_10303" x="141" y="79" width="296" height="243" filterUnits="userSpaceOnUse" color-interpolation-filters="sRGB">
<feFlood flood-opacity="0" result="BackgroundImageFix"/>
<feColorMatrix in="SourceAlpha" type="matrix" values="0 0 0 0 0 0 0 0 0 0 0 0 0 0 0 0 0 0 127 0" result="hardAlpha"/>
<feOffset dy="2"/>
<feGaussianBlur stdDeviation="8"/>
<feColorMatrix type="matrix" values="0 0 0 0 0 0 0 0 0 0 0 0 0 0 0 0 0 0 0.36 0"/>
<feBlend mode="normal" in2="BackgroundImageFix" result="effect1_dropShadow_6184_10303"/>
<feBlend mode="normal" in="SourceGraphic" in2="effect1_dropShadow_6184_10303" result="shape"/>
</filter>
<radialGradient id="paint0_radial_6184_10303" cx="0" cy="0" r="1" gradientUnits="userSpaceOnUse" gradientTransform="translate(39.6199 72.727) scale(9.34151 9.34151)">
<stop offset="0.27" stop-color="#FFD70F"/>
<stop offset="0.49" stop-color="#FFCB12"/>
<stop offset="0.88" stop-color="#FEAC19"/>
<stop offset="1" stop-color="#FEA11B"/>
</radialGradient>
<linearGradient id="paint1_linear_6184_10303" x1="50.9999" y1="101.951" x2="50.9999" y2="88.0488" gradientUnits="userSpaceOnUse">
<stop stop-color="#198AB3"/>
<stop offset="0.09" stop-color="#1F9DC4"/>
<stop offset="0.24" stop-color="#28B5D9"/>
<stop offset="0.4" stop-color="#2DC6E9"/>
<stop offset="0.57" stop-color="#31D1F2"/>
<stop offset="0.78" stop-color="#32D4F5"/>
</linearGradient>
<linearGradient id="paint2_linear_6184_10303" x1="50.4306" y1="97.0889" x2="50.4306" y2="99.8534" gradientUnits="userSpaceOnUse">
<stop stop-color="#C69AEB"/>
<stop offset="1" stop-color="#6F4BB2"/>
</linearGradient>
<radialGradient id="paint3_radial_6184_10303" cx="0" cy="0" r="1" gradientUnits="userSpaceOnUse" gradientTransform="translate(39.6199 138.727) scale(9.34151 9.34151)">
<stop offset="0.27" stop-color="#FFD70F"/>
<stop offset="0.49" stop-color="#FFCB12"/>
<stop offset="0.88" stop-color="#FEAC19"/>
<stop offset="1" stop-color="#FEA11B"/>
</radialGradient>
<radialGradient id="paint4_radial_6184_10303" cx="0" cy="0" r="1" gradientUnits="userSpaceOnUse" gradientTransform="translate(39.6199 160.727) scale(9.34151 9.34151)">
<stop offset="0.27" stop-color="#FFD70F"/>
<stop offset="0.49" stop-color="#FFCB12"/>
<stop offset="0.88" stop-color="#FEAC19"/>
<stop offset="1" stop-color="#FEA11B"/>
</radialGradient>
<radialGradient id="paint5_radial_6184_10303" cx="0" cy="0" r="1" gradientUnits="userSpaceOnUse" gradientTransform="translate(39.6199 182.727) scale(9.34151 9.34151)">
<stop offset="0.27" stop-color="#FFD70F"/>
<stop offset="0.49" stop-color="#FFCB12"/>
<stop offset="0.88" stop-color="#FEAC19"/>
<stop offset="1" stop-color="#FEA11B"/>
</radialGradient>
<radialGradient id="paint6_radial_6184_10303" cx="0" cy="0" r="1" gradientUnits="userSpaceOnUse" gradientTransform="translate(39.6199 204.727) scale(9.34151 9.34151)">
<stop offset="0.27" stop-color="#FFD70F"/>
<stop offset="0.49" stop-color="#FFCB12"/>
<stop offset="0.88" stop-color="#FEAC19"/>
<stop offset="1" stop-color="#FEA11B"/>
</radialGradient>
<clipPath id="clip0_6184_10303">
<rect width="300" height="22" fill="white" transform="translate(0 62)"/>
</clipPath>
<clipPath id="clip1_6184_10303">
<rect width="16" height="16" fill="white" transform="translate(33 65)"/>
</clipPath>
<clipPath id="clip2_6184_10303">
<rect width="300" height="22" fill="white" transform="translate(0 128)"/>
</clipPath>
<clipPath id="clip3_6184_10303">
<rect width="16" height="16" fill="white" transform="translate(33 131)"/>
</clipPath>
<clipPath id="clip4_6184_10303">
<rect width="300" height="22" fill="white" transform="translate(0 150)"/>
</clipPath>
<clipPath id="clip5_6184_10303">
<rect width="16" height="16" fill="white" transform="translate(33 153)"/>
</clipPath>
<clipPath id="clip6_6184_10303">
<rect width="300" height="22" fill="white" transform="translate(0 172)"/>
</clipPath>
<clipPath id="clip7_6184_10303">
<rect width="16" height="16" fill="white" transform="translate(33 175)"/>
</clipPath>
<clipPath id="clip8_6184_10303">
<rect width="300" height="22" fill="white" transform="translate(0 194)"/>
</clipPath>
<clipPath id="clip9_6184_10303">
<rect width="16" height="16" fill="white" transform="translate(33 197)"/>
</clipPath>
</defs>
</svg>
